<?xml version="1.0" standalone="no"?>
 <!DOCTYPE svg PUBLIC "-//W3C//DTD SVG 1.1//EN" 
 "http://www.w3.org/Graphics/SVG/1.1/DTD/svg11.dtd"> 
<svg
  xmlns:svg="http://www.w3.org/2000/svg"
  xmlns="http://www.w3.org/2000/svg"
  xmlns:xlink="http://www.w3.org/1999/xlink"
  version="1.1"
  width="297.0022mm" height="210.0072mm" viewBox="0.0000 0.0000 297.0022 210.0072">
<title>SVG Image created as EL2039-F_Silkscreen.svg date 2026/03/18 19:01:42 </title>
  <desc>Image generated by PCBNEW </desc>
<g style="fill:#000000; fill-opacity:1.0000;stroke:#000000; stroke-opacity:1.0000;
stroke-linecap:round; stroke-linejoin:round;"
 transform="translate(0 0) scale(1 1)">
</g>
<g style="fill:none; 
stroke:#000000; stroke-width:0.1000; stroke-opacity:1; 
stroke-linecap:round; stroke-linejoin:round;">
<path d="M130.9804 69.1388 A1.0996 1.0996 0.0 0 0 133.1796 69.1388" />
<path style="fill:none; 
stroke:#000000; stroke-width:0.1000; stroke-opacity:1; 
stroke-linecap:round; stroke-linejoin:round;fill:none"
d="M 125.9332,69.1388
138.3030,69.1388
138.3030,89.2556
125.9332,89.2556
Z" /> 
<g transform="rotate(-90.000000 126.7206 78.9686)">
<text x="126.7206" y="79.4686"
textLength="15.5762" font-size="1.3333" lengthAdjust="spacingAndGlyphs"
text-anchor="middle" opacity="0" stroke-opacity="0">EL2039 replacement</text>
</g>
<g class="stroked-text"><desc>EL2039 replacement</desc>
<path d="M126.6542 86.4686
L126.6542 86.1353
" />
<path d="M127.1780 85.9924
L127.1780 86.4686
" />
<path d="M127.1780 86.4686
L126.1780 86.4686
" />
<path d="M126.1780 86.4686
L126.1780 85.9924
" />
<path d="M127.1780 85.0876
L127.1780 85.5638
" />
<path d="M127.1780 85.5638
L126.1780 85.5638
" />
<path d="M126.2733 84.8019
L126.2256 84.7543
" />
<path d="M126.2256 84.7543
L126.1780 84.6591
" />
<path d="M126.1780 84.6591
L126.1780 84.4210
" />
<path d="M126.1780 84.4210
L126.2256 84.3257
" />
<path d="M126.2256 84.3257
L126.2733 84.2781
" />
<path d="M126.2733 84.2781
L126.3685 84.2305
" />
<path d="M126.3685 84.2305
L126.4637 84.2305
" />
<path d="M126.4637 84.2305
L126.6066 84.2781
" />
<path d="M126.6066 84.2781
L127.1780 84.8496
" />
<path d="M127.1780 84.8496
L127.1780 84.2305
" />
<path d="M126.1780 83.6115
L126.1780 83.5162
" />
<path d="M126.1780 83.5162
L126.2256 83.4210
" />
<path d="M126.2256 83.4210
L126.2733 83.3734
" />
<path d="M126.2733 83.3734
L126.3685 83.3257
" />
<path d="M126.3685 83.3257
L126.5590 83.2781
" />
<path d="M126.5590 83.2781
L126.7971 83.2781
" />
<path d="M126.7971 83.2781
L126.9875 83.3257
" />
<path d="M126.9875 83.3257
L127.0828 83.3734
" />
<path d="M127.0828 83.3734
L127.1304 83.4210
" />
<path d="M127.1304 83.4210
L127.1780 83.5162
" />
<path d="M127.1780 83.5162
L127.1780 83.6115
" />
<path d="M127.1780 83.6115
L127.1304 83.7067
" />
<path d="M127.1304 83.7067
L127.0828 83.7543
" />
<path d="M127.0828 83.7543
L126.9875 83.8019
" />
<path d="M126.9875 83.8019
L126.7971 83.8496
" />
<path d="M126.7971 83.8496
L126.5590 83.8496
" />
<path d="M126.5590 83.8496
L126.3685 83.8019
" />
<path d="M126.3685 83.8019
L126.2733 83.7543
" />
<path d="M126.2733 83.7543
L126.2256 83.7067
" />
<path d="M126.2256 83.7067
L126.1780 83.6115
" />
<path d="M126.1780 82.9448
L126.1780 82.3257
" />
<path d="M126.1780 82.3257
L126.5590 82.6591
" />
<path d="M126.5590 82.6591
L126.5590 82.5162
" />
<path d="M126.5590 82.5162
L126.6066 82.4210
" />
<path d="M126.6066 82.4210
L126.6542 82.3734
" />
<path d="M126.6542 82.3734
L126.7494 82.3257
" />
<path d="M126.7494 82.3257
L126.9875 82.3257
" />
<path d="M126.9875 82.3257
L127.0828 82.3734
" />
<path d="M127.0828 82.3734
L127.1304 82.4210
" />
<path d="M127.1304 82.4210
L127.1780 82.5162
" />
<path d="M127.1780 82.5162
L127.1780 82.8019
" />
<path d="M127.1780 82.8019
L127.1304 82.8972
" />
<path d="M127.1304 82.8972
L127.0828 82.9448
" />
<path d="M127.1780 81.8496
L127.1780 81.6591
" />
<path d="M127.1780 81.6591
L127.1304 81.5638
" />
<path d="M127.1304 81.5638
L127.0828 81.5162
" />
<path d="M127.0828 81.5162
L126.9399 81.4210
" />
<path d="M126.9399 81.4210
L126.7494 81.3734
" />
<path d="M126.7494 81.3734
L126.3685 81.3734
" />
<path d="M126.3685 81.3734
L126.2733 81.4210
" />
<path d="M126.2733 81.4210
L126.2256 81.4686
" />
<path d="M126.2256 81.4686
L126.1780 81.5638
" />
<path d="M126.1780 81.5638
L126.1780 81.7543
" />
<path d="M126.1780 81.7543
L126.2256 81.8496
" />
<path d="M126.2256 81.8496
L126.2733 81.8972
" />
<path d="M126.2733 81.8972
L126.3685 81.9448
" />
<path d="M126.3685 81.9448
L126.6066 81.9448
" />
<path d="M126.6066 81.9448
L126.7018 81.8972
" />
<path d="M126.7018 81.8972
L126.7494 81.8496
" />
<path d="M126.7494 81.8496
L126.7971 81.7543
" />
<path d="M126.7971 81.7543
L126.7971 81.5638
" />
<path d="M126.7971 81.5638
L126.7494 81.4686
" />
<path d="M126.7494 81.4686
L126.7018 81.4210
" />
<path d="M126.7018 81.4210
L126.6066 81.3734
" />
<path d="M127.1780 80.1829
L126.5114 80.1829
" />
<path d="M126.7018 80.1829
L126.6066 80.1353
" />
<path d="M126.6066 80.1353
L126.5590 80.0876
" />
<path d="M126.5590 80.0876
L126.5114 79.9924
" />
<path d="M126.5114 79.9924
L126.5114 79.8972
" />
<path d="M127.1304 79.1829
L127.1780 79.2781
" />
<path d="M127.1780 79.2781
L127.1780 79.4686
" />
<path d="M127.1780 79.4686
L127.1304 79.5638
" />
<path d="M127.1304 79.5638
L127.0352 79.6115
" />
<path d="M127.0352 79.6115
L126.6542 79.6115
" />
<path d="M126.6542 79.6115
L126.5590 79.5638
" />
<path d="M126.5590 79.5638
L126.5114 79.4686
" />
<path d="M126.5114 79.4686
L126.5114 79.2781
" />
<path d="M126.5114 79.2781
L126.5590 79.1829
" />
<path d="M126.5590 79.1829
L126.6542 79.1353
" />
<path d="M126.6542 79.1353
L126.7494 79.1353
" />
<path d="M126.7494 79.1353
L126.8447 79.6115
" />
<path d="M126.5114 78.7067
L127.5114 78.7067
" />
<path d="M126.5590 78.7067
L126.5114 78.6115
" />
<path d="M126.5114 78.6115
L126.5114 78.4210
" />
<path d="M126.5114 78.4210
L126.5590 78.3257
" />
<path d="M126.5590 78.3257
L126.6066 78.2781
" />
<path d="M126.6066 78.2781
L126.7018 78.2305
" />
<path d="M126.7018 78.2305
L126.9875 78.2305
" />
<path d="M126.9875 78.2305
L127.0828 78.2781
" />
<path d="M127.0828 78.2781
L127.1304 78.3257
" />
<path d="M127.1304 78.3257
L127.1780 78.4210
" />
<path d="M127.1780 78.4210
L127.1780 78.6115
" />
<path d="M127.1780 78.6115
L127.1304 78.7067
" />
<path d="M127.1780 77.6591
L127.1304 77.7543
" />
<path d="M127.1304 77.7543
L127.0352 77.8019
" />
<path d="M127.0352 77.8019
L126.1780 77.8019
" />
<path d="M127.1780 76.8496
L126.6542 76.8496
" />
<path d="M126.6542 76.8496
L126.5590 76.8972
" />
<path d="M126.5590 76.8972
L126.5114 76.9924
" />
<path d="M126.5114 76.9924
L126.5114 77.1829
" />
<path d="M126.5114 77.1829
L126.5590 77.2781
" />
<path d="M127.1304 76.8496
L127.1780 76.9448
" />
<path d="M127.1780 76.9448
L127.1780 77.1829
" />
<path d="M127.1780 77.1829
L127.1304 77.2781
" />
<path d="M127.1304 77.2781
L127.0352 77.3257
" />
<path d="M127.0352 77.3257
L126.9399 77.3257
" />
<path d="M126.9399 77.3257
L126.8447 77.2781
" />
<path d="M126.8447 77.2781
L126.7971 77.1829
" />
<path d="M126.7971 77.1829
L126.7971 76.9448
" />
<path d="M126.7971 76.9448
L126.7494 76.8496
" />
<path d="M127.1304 75.9448
L127.1780 76.0400
" />
<path d="M127.1780 76.0400
L127.1780 76.2305
" />
<path d="M127.1780 76.2305
L127.1304 76.3257
" />
<path d="M127.1304 76.3257
L127.0828 76.3734
" />
<path d="M127.0828 76.3734
L126.9875 76.4210
" />
<path d="M126.9875 76.4210
L126.7018 76.4210
" />
<path d="M126.7018 76.4210
L126.6066 76.3734
" />
<path d="M126.6066 76.3734
L126.5590 76.3257
" />
<path d="M126.5590 76.3257
L126.5114 76.2305
" />
<path d="M126.5114 76.2305
L126.5114 76.0400
" />
<path d="M126.5114 76.0400
L126.5590 75.9448
" />
<path d="M127.1304 75.1353
L127.1780 75.2305
" />
<path d="M127.1780 75.2305
L127.1780 75.4210
" />
<path d="M127.1780 75.4210
L127.1304 75.5162
" />
<path d="M127.1304 75.5162
L127.0352 75.5638
" />
<path d="M127.0352 75.5638
L126.6542 75.5638
" />
<path d="M126.6542 75.5638
L126.5590 75.5162
" />
<path d="M126.5590 75.5162
L126.5114 75.4210
" />
<path d="M126.5114 75.4210
L126.5114 75.2305
" />
<path d="M126.5114 75.2305
L126.5590 75.1353
" />
<path d="M126.5590 75.1353
L126.6542 75.0876
" />
<path d="M126.6542 75.0876
L126.7494 75.0876
" />
<path d="M126.7494 75.0876
L126.8447 75.5638
" />
<path d="M127.1780 74.6591
L126.5114 74.6591
" />
<path d="M126.6066 74.6591
L126.5590 74.6115
" />
<path d="M126.5590 74.6115
L126.5114 74.5162
" />
<path d="M126.5114 74.5162
L126.5114 74.3734
" />
<path d="M126.5114 74.3734
L126.5590 74.2781
" />
<path d="M126.5590 74.2781
L126.6542 74.2305
" />
<path d="M126.6542 74.2305
L127.1780 74.2305
" />
<path d="M126.6542 74.2305
L126.5590 74.1829
" />
<path d="M126.5590 74.1829
L126.5114 74.0876
" />
<path d="M126.5114 74.0876
L126.5114 73.9448
" />
<path d="M126.5114 73.9448
L126.5590 73.8495
" />
<path d="M126.5590 73.8495
L126.6542 73.8019
" />
<path d="M126.6542 73.8019
L127.1780 73.8019
" />
<path d="M127.1304 72.9448
L127.1780 73.0400
" />
<path d="M127.1780 73.0400
L127.1780 73.2305
" />
<path d="M127.1780 73.2305
L127.1304 73.3257
" />
<path d="M127.1304 73.3257
L127.0352 73.3734
" />
<path d="M127.0352 73.3734
L126.6542 73.3734
" />
<path d="M126.6542 73.3734
L126.5590 73.3257
" />
<path d="M126.5590 73.3257
L126.5114 73.2305
" />
<path d="M126.5114 73.2305
L126.5114 73.0400
" />
<path d="M126.5114 73.0400
L126.5590 72.9448
" />
<path d="M126.5590 72.9448
L126.6542 72.8972
" />
<path d="M126.6542 72.8972
L126.7494 72.8972
" />
<path d="M126.7494 72.8972
L126.8447 73.3734
" />
<path d="M126.5114 72.4686
L127.1780 72.4686
" />
<path d="M126.6066 72.4686
L126.5590 72.4210
" />
<path d="M126.5590 72.4210
L126.5114 72.3257
" />
<path d="M126.5114 72.3257
L126.5114 72.1829
" />
<path d="M126.5114 72.1829
L126.5590 72.0876
" />
<path d="M126.5590 72.0876
L126.6542 72.0400
" />
<path d="M126.6542 72.0400
L127.1780 72.0400
" />
<path d="M126.5114 71.7067
L126.5114 71.3257
" />
<path d="M126.1780 71.5638
L127.0352 71.5638
" />
<path d="M127.0352 71.5638
L127.1304 71.5162
" />
<path d="M127.1304 71.5162
L127.1780 71.4210
" />
<path d="M127.1780 71.4210
L127.1780 71.3257
" />
</g><g transform="rotate(-90.000000 137.6000 79.0000)">
<text x="137.6000" y="79.5000"
textLength="19.6714" font-size="1.3333" lengthAdjust="spacingAndGlyphs"
text-anchor="middle" opacity="0" stroke-opacity="0">2026 Simon B. &amp; Aldo R.</text>
</g>
<g class="stroked-text"><desc>2026 Simon B. &amp; Aldo R.</desc>
<path d="M137.1527 88.5952
L137.1050 88.5476
" />
<path d="M137.1050 88.5476
L137.0574 88.4524
" />
<path d="M137.0574 88.4524
L137.0574 88.2143
" />
<path d="M137.0574 88.2143
L137.1050 88.1190
" />
<path d="M137.1050 88.1190
L137.1527 88.0714
" />
<path d="M137.1527 88.0714
L137.2479 88.0238
" />
<path d="M137.2479 88.0238
L137.3431 88.0238
" />
<path d="M137.3431 88.0238
L137.4860 88.0714
" />
<path d="M137.4860 88.0714
L138.0574 88.6429
" />
<path d="M138.0574 88.6429
L138.0574 88.0238
" />
<path d="M137.0574 87.4048
L137.0574 87.3095
" />
<path d="M137.0574 87.3095
L137.1050 87.2143
" />
<path d="M137.1050 87.2143
L137.1527 87.1667
" />
<path d="M137.1527 87.1667
L137.2479 87.1190
" />
<path d="M137.2479 87.1190
L137.4384 87.0714
" />
<path d="M137.4384 87.0714
L137.6765 87.0714
" />
<path d="M137.6765 87.0714
L137.8669 87.1190
" />
<path d="M137.8669 87.1190
L137.9622 87.1667
" />
<path d="M137.9622 87.1667
L138.0098 87.2143
" />
<path d="M138.0098 87.2143
L138.0574 87.3095
" />
<path d="M138.0574 87.3095
L138.0574 87.4048
" />
<path d="M138.0574 87.4048
L138.0098 87.5000
" />
<path d="M138.0098 87.5000
L137.9622 87.5476
" />
<path d="M137.9622 87.5476
L137.8669 87.5952
" />
<path d="M137.8669 87.5952
L137.6765 87.6429
" />
<path d="M137.6765 87.6429
L137.4384 87.6429
" />
<path d="M137.4384 87.6429
L137.2479 87.5952
" />
<path d="M137.2479 87.5952
L137.1527 87.5476
" />
<path d="M137.1527 87.5476
L137.1050 87.5000
" />
<path d="M137.1050 87.5000
L137.0574 87.4048
" />
<path d="M137.1527 86.6905
L137.1050 86.6429
" />
<path d="M137.1050 86.6429
L137.0574 86.5476
" />
<path d="M137.0574 86.5476
L137.0574 86.3095
" />
<path d="M137.0574 86.3095
L137.1050 86.2143
" />
<path d="M137.1050 86.2143
L137.1527 86.1667
" />
<path d="M137.1527 86.1667
L137.2479 86.1190
" />
<path d="M137.2479 86.1190
L137.3431 86.1190
" />
<path d="M137.3431 86.1190
L137.4860 86.1667
" />
<path d="M137.4860 86.1667
L138.0574 86.7381
" />
<path d="M138.0574 86.7381
L138.0574 86.1190
" />
<path d="M137.0574 85.2619
L137.0574 85.4524
" />
<path d="M137.0574 85.4524
L137.1050 85.5476
" />
<path d="M137.1050 85.5476
L137.1527 85.5952
" />
<path d="M137.1527 85.5952
L137.2955 85.6905
" />
<path d="M137.2955 85.6905
L137.4860 85.7381
" />
<path d="M137.4860 85.7381
L137.8669 85.7381
" />
<path d="M137.8669 85.7381
L137.9622 85.6905
" />
<path d="M137.9622 85.6905
L138.0098 85.6429
" />
<path d="M138.0098 85.6429
L138.0574 85.5476
" />
<path d="M138.0574 85.5476
L138.0574 85.3571
" />
<path d="M138.0574 85.3571
L138.0098 85.2619
" />
<path d="M138.0098 85.2619
L137.9622 85.2143
" />
<path d="M137.9622 85.2143
L137.8669 85.1667
" />
<path d="M137.8669 85.1667
L137.6288 85.1667
" />
<path d="M137.6288 85.1667
L137.5336 85.2143
" />
<path d="M137.5336 85.2143
L137.4860 85.2619
" />
<path d="M137.4860 85.2619
L137.4384 85.3571
" />
<path d="M137.4384 85.3571
L137.4384 85.5476
" />
<path d="M137.4384 85.5476
L137.4860 85.6429
" />
<path d="M137.4860 85.6429
L137.5336 85.6905
" />
<path d="M137.5336 85.6905
L137.6288 85.7381
" />
<path d="M138.0098 84.0238
L138.0574 83.8810
" />
<path d="M138.0574 83.8810
L138.0574 83.6429
" />
<path d="M138.0574 83.6429
L138.0098 83.5476
" />
<path d="M138.0098 83.5476
L137.9622 83.5000
" />
<path d="M137.9622 83.5000
L137.8669 83.4524
" />
<path d="M137.8669 83.4524
L137.7717 83.4524
" />
<path d="M137.7717 83.4524
L137.6765 83.5000
" />
<path d="M137.6765 83.5000
L137.6288 83.5476
" />
<path d="M137.6288 83.5476
L137.5812 83.6429
" />
<path d="M137.5812 83.6429
L137.5336 83.8333
" />
<path d="M137.5336 83.8333
L137.4860 83.9286
" />
<path d="M137.4860 83.9286
L137.4384 83.9762
" />
<path d="M137.4384 83.9762
L137.3431 84.0238
" />
<path d="M137.3431 84.0238
L137.2479 84.0238
" />
<path d="M137.2479 84.0238
L137.1527 83.9762
" />
<path d="M137.1527 83.9762
L137.1050 83.9286
" />
<path d="M137.1050 83.9286
L137.0574 83.8333
" />
<path d="M137.0574 83.8333
L137.0574 83.5952
" />
<path d="M137.0574 83.5952
L137.1050 83.4524
" />
<path d="M138.0574 83.0238
L137.3908 83.0238
" />
<path d="M137.0574 83.0238
L137.1050 83.0714
" />
<path d="M137.1050 83.0714
L137.1527 83.0238
" />
<path d="M137.1527 83.0238
L137.1050 82.9762
" />
<path d="M137.1050 82.9762
L137.0574 83.0238
" />
<path d="M137.0574 83.0238
L137.1527 83.0238
" />
<path d="M138.0574 82.5476
L137.3908 82.5476
" />
<path d="M137.4860 82.5476
L137.4384 82.5000
" />
<path d="M137.4384 82.5000
L137.3908 82.4048
" />
<path d="M137.3908 82.4048
L137.3908 82.2619
" />
<path d="M137.3908 82.2619
L137.4384 82.1667
" />
<path d="M137.4384 82.1667
L137.5336 82.1190
" />
<path d="M137.5336 82.1190
L138.0574 82.1190
" />
<path d="M137.5336 82.1190
L137.4384 82.0714
" />
<path d="M137.4384 82.0714
L137.3908 81.9762
" />
<path d="M137.3908 81.9762
L137.3908 81.8333
" />
<path d="M137.3908 81.8333
L137.4384 81.7381
" />
<path d="M137.4384 81.7381
L137.5336 81.6905
" />
<path d="M137.5336 81.6905
L138.0574 81.6905
" />
<path d="M138.0574 81.0714
L138.0098 81.1667
" />
<path d="M138.0098 81.1667
L137.9622 81.2143
" />
<path d="M137.9622 81.2143
L137.8669 81.2619
" />
<path d="M137.8669 81.2619
L137.5812 81.2619
" />
<path d="M137.5812 81.2619
L137.4860 81.2143
" />
<path d="M137.4860 81.2143
L137.4384 81.1667
" />
<path d="M137.4384 81.1667
L137.3908 81.0714
" />
<path d="M137.3908 81.0714
L137.3908 80.9286
" />
<path d="M137.3908 80.9286
L137.4384 80.8333
" />
<path d="M137.4384 80.8333
L137.4860 80.7857
" />
<path d="M137.4860 80.7857
L137.5812 80.7381
" />
<path d="M137.5812 80.7381
L137.8669 80.7381
" />
<path d="M137.8669 80.7381
L137.9622 80.7857
" />
<path d="M137.9622 80.7857
L138.0098 80.8333
" />
<path d="M138.0098 80.8333
L138.0574 80.9286
" />
<path d="M138.0574 80.9286
L138.0574 81.0714
" />
<path d="M137.3908 80.3095
L138.0574 80.3095
" />
<path d="M137.4860 80.3095
L137.4384 80.2619
" />
<path d="M137.4384 80.2619
L137.3908 80.1667
" />
<path d="M137.3908 80.1667
L137.3908 80.0238
" />
<path d="M137.3908 80.0238
L137.4384 79.9286
" />
<path d="M137.4384 79.9286
L137.5336 79.8810
" />
<path d="M137.5336 79.8810
L138.0574 79.8810
" />
<path d="M137.5336 78.3095
L137.5812 78.1667
" />
<path d="M137.5812 78.1667
L137.6288 78.1190
" />
<path d="M137.6288 78.1190
L137.7241 78.0714
" />
<path d="M137.7241 78.0714
L137.8669 78.0714
" />
<path d="M137.8669 78.0714
L137.9622 78.1190
" />
<path d="M137.9622 78.1190
L138.0098 78.1667
" />
<path d="M138.0098 78.1667
L138.0574 78.2619
" />
<path d="M138.0574 78.2619
L138.0574 78.6429
" />
<path d="M138.0574 78.6429
L137.0574 78.6429
" />
<path d="M137.0574 78.6429
L137.0574 78.3095
" />
<path d="M137.0574 78.3095
L137.1050 78.2143
" />
<path d="M137.1050 78.2143
L137.1527 78.1667
" />
<path d="M137.1527 78.1667
L137.2479 78.1190
" />
<path d="M137.2479 78.1190
L137.3431 78.1190
" />
<path d="M137.3431 78.1190
L137.4384 78.1667
" />
<path d="M137.4384 78.1667
L137.4860 78.2143
" />
<path d="M137.4860 78.2143
L137.5336 78.3095
" />
<path d="M137.5336 78.3095
L137.5336 78.6429
" />
<path d="M137.9622 77.6429
L138.0098 77.5952
" />
<path d="M138.0098 77.5952
L138.0574 77.6429
" />
<path d="M138.0574 77.6429
L138.0098 77.6905
" />
<path d="M138.0098 77.6905
L137.9622 77.6429
" />
<path d="M137.9622 77.6429
L138.0574 77.6429
" />
<path d="M138.0574 75.5952
L138.0574 75.6429
" />
<path d="M138.0574 75.6429
L138.0098 75.7381
" />
<path d="M138.0098 75.7381
L137.8669 75.8810
" />
<path d="M137.8669 75.8810
L137.5812 76.1190
" />
<path d="M137.5812 76.1190
L137.4384 76.2143
" />
<path d="M137.4384 76.2143
L137.2955 76.2619
" />
<path d="M137.2955 76.2619
L137.2003 76.2619
" />
<path d="M137.2003 76.2619
L137.1050 76.2143
" />
<path d="M137.1050 76.2143
L137.0574 76.1190
" />
<path d="M137.0574 76.1190
L137.0574 76.0714
" />
<path d="M137.0574 76.0714
L137.1050 75.9762
" />
<path d="M137.1050 75.9762
L137.2003 75.9286
" />
<path d="M137.2003 75.9286
L137.2479 75.9286
" />
<path d="M137.2479 75.9286
L137.3431 75.9762
" />
<path d="M137.3431 75.9762
L137.3908 76.0238
" />
<path d="M137.3908 76.0238
L137.5812 76.3095
" />
<path d="M137.5812 76.3095
L137.6288 76.3571
" />
<path d="M137.6288 76.3571
L137.7241 76.4048
" />
<path d="M137.7241 76.4048
L137.8669 76.4048
" />
<path d="M137.8669 76.4048
L137.9622 76.3571
" />
<path d="M137.9622 76.3571
L138.0098 76.3095
" />
<path d="M138.0098 76.3095
L138.0574 76.2143
" />
<path d="M138.0574 76.2143
L138.0574 76.0714
" />
<path d="M138.0574 76.0714
L138.0098 75.9762
" />
<path d="M138.0098 75.9762
L137.9622 75.9286
" />
<path d="M137.9622 75.9286
L137.7717 75.7857
" />
<path d="M137.7717 75.7857
L137.6288 75.7381
" />
<path d="M137.6288 75.7381
L137.5336 75.7381
" />
<path d="M137.7717 74.4524
L137.7717 73.9762
" />
<path d="M138.0574 74.5476
L137.0574 74.2143
" />
<path d="M137.0574 74.2143
L138.0574 73.8810
" />
<path d="M138.0574 73.4048
L138.0098 73.5000
" />
<path d="M138.0098 73.5000
L137.9146 73.5476
" />
<path d="M137.9146 73.5476
L137.0574 73.5476
" />
<path d="M138.0574 72.5952
L137.0574 72.5952
" />
<path d="M138.0098 72.5952
L138.0574 72.6905
" />
<path d="M138.0574 72.6905
L138.0574 72.8810
" />
<path d="M138.0574 72.8810
L138.0098 72.9762
" />
<path d="M138.0098 72.9762
L137.9622 73.0238
" />
<path d="M137.9622 73.0238
L137.8669 73.0714
" />
<path d="M137.8669 73.0714
L137.5812 73.0714
" />
<path d="M137.5812 73.0714
L137.4860 73.0238
" />
<path d="M137.4860 73.0238
L137.4384 72.9762
" />
<path d="M137.4384 72.9762
L137.3908 72.8810
" />
<path d="M137.3908 72.8810
L137.3908 72.6905
" />
<path d="M137.3908 72.6905
L137.4384 72.5952
" />
<path d="M138.0574 71.9762
L138.0098 72.0714
" />
<path d="M138.0098 72.0714
L137.9622 72.1190
" />
<path d="M137.9622 72.1190
L137.8669 72.1667
" />
<path d="M137.8669 72.1667
L137.5812 72.1667
" />
<path d="M137.5812 72.1667
L137.4860 72.1190
" />
<path d="M137.4860 72.1190
L137.4384 72.0714
" />
<path d="M137.4384 72.0714
L137.3908 71.9762
" />
<path d="M137.3908 71.9762
L137.3908 71.8333
" />
<path d="M137.3908 71.8333
L137.4384 71.7381
" />
<path d="M137.4384 71.7381
L137.4860 71.6905
" />
<path d="M137.4860 71.6905
L137.5812 71.6429
" />
<path d="M137.5812 71.6429
L137.8669 71.6429
" />
<path d="M137.8669 71.6429
L137.9622 71.6905
" />
<path d="M137.9622 71.6905
L138.0098 71.7381
" />
<path d="M138.0098 71.7381
L138.0574 71.8333
" />
<path d="M138.0574 71.8333
L138.0574 71.9762
" />
<path d="M138.0574 69.8810
L137.5812 70.2143
" />
<path d="M138.0574 70.4524
L137.0574 70.4524
" />
<path d="M137.0574 70.4524
L137.0574 70.0714
" />
<path d="M137.0574 70.0714
L137.1050 69.9762
" />
<path d="M137.1050 69.9762
L137.1527 69.9286
" />
<path d="M137.1527 69.9286
L137.2479 69.8810
" />
<path d="M137.2479 69.8810
L137.3908 69.8810
" />
<path d="M137.3908 69.8810
L137.4860 69.9286
" />
<path d="M137.4860 69.9286
L137.5336 69.9762
" />
<path d="M137.5336 69.9762
L137.5812 70.0714
" />
<path d="M137.5812 70.0714
L137.5812 70.4524
" />
<path d="M137.9622 69.4524
L138.0098 69.4048
" />
<path d="M138.0098 69.4048
L138.0574 69.4524
" />
<path d="M138.0574 69.4524
L138.0098 69.5000
" />
<path d="M138.0098 69.5000
L137.9622 69.4524
" />
<path d="M137.9622 69.4524
L138.0574 69.4524
" />
</g><text x="127.8128" y="70.6628"
textLength="1.0524" font-size="1.3333" lengthAdjust="spacingAndGlyphs"
text-anchor="start" opacity="0" stroke-opacity="0">1</text>
<g class="stroked-text"><desc>1</desc>
<path d="M128.6405 70.5352
L128.0691 70.5352
" />
<path d="M128.3548 70.5352
L128.3548 69.5352
" />
<path d="M128.3548 69.5352
L128.2595 69.6781
" />
<path d="M128.2595 69.6781
L128.1643 69.7733
" />
<path d="M128.1643 69.7733
L128.0691 69.8209
" />
</g></g>
<g style="fill:none; 
stroke:#000000; stroke-width:0.1500; stroke-opacity:1; 
stroke-linecap:round; stroke-linejoin:round;">
<text x="129.9000" y="81.4000"
textLength="2.2024" font-size="1.3333" lengthAdjust="spacingAndGlyphs"
text-anchor="middle" opacity="0" stroke-opacity="0">C5</text>
<g class="stroked-text"><desc>C5</desc>
<path d="M129.7333 81.2596
L129.6857 81.3072
" />
<path d="M129.6857 81.3072
L129.5429 81.3548
" />
<path d="M129.5429 81.3548
L129.4476 81.3548
" />
<path d="M129.4476 81.3548
L129.3048 81.3072
" />
<path d="M129.3048 81.3072
L129.2095 81.2120
" />
<path d="M129.2095 81.2120
L129.1619 81.1167
" />
<path d="M129.1619 81.1167
L129.1143 80.9262
" />
<path d="M129.1143 80.9262
L129.1143 80.7834
" />
<path d="M129.1143 80.7834
L129.1619 80.5929
" />
<path d="M129.1619 80.5929
L129.2095 80.4977
" />
<path d="M129.2095 80.4977
L129.3048 80.4024
" />
<path d="M129.3048 80.4024
L129.4476 80.3548
" />
<path d="M129.4476 80.3548
L129.5429 80.3548
" />
<path d="M129.5429 80.3548
L129.6857 80.4024
" />
<path d="M129.6857 80.4024
L129.7333 80.4501
" />
<path d="M130.6381 80.3548
L130.1619 80.3548
" />
<path d="M130.1619 80.3548
L130.1143 80.8310
" />
<path d="M130.1143 80.8310
L130.1619 80.7834
" />
<path d="M130.1619 80.7834
L130.2571 80.7358
" />
<path d="M130.2571 80.7358
L130.4952 80.7358
" />
<path d="M130.4952 80.7358
L130.5905 80.7834
" />
<path d="M130.5905 80.7834
L130.6381 80.8310
" />
<path d="M130.6381 80.8310
L130.6857 80.9262
" />
<path d="M130.6857 80.9262
L130.6857 81.1643
" />
<path d="M130.6857 81.1643
L130.6381 81.2596
" />
<path d="M130.6381 81.2596
L130.5905 81.3072
" />
<path d="M130.5905 81.3072
L130.4952 81.3548
" />
<path d="M130.4952 81.3548
L130.2571 81.3548
" />
<path d="M130.2571 81.3548
L130.1619 81.3072
" />
<path d="M130.1619 81.3072
L130.1143 81.2596
" />
</g><g transform="rotate(-90.000000 132.3000 84.1000)">
<text x="132.3000" y="84.6000"
textLength="2.2024" font-size="1.3333" lengthAdjust="spacingAndGlyphs"
text-anchor="middle" opacity="0" stroke-opacity="0">C4</text>
</g>
<g class="stroked-text"><desc>C4</desc>
<path d="M132.6596 84.2667
L132.7072 84.3143
" />
<path d="M132.7072 84.3143
L132.7548 84.4571
" />
<path d="M132.7548 84.4571
L132.7548 84.5524
" />
<path d="M132.7548 84.5524
L132.7072 84.6952
" />
<path d="M132.7072 84.6952
L132.6120 84.7905
" />
<path d="M132.6120 84.7905
L132.5167 84.8381
" />
<path d="M132.5167 84.8381
L132.3262 84.8857
" />
<path d="M132.3262 84.8857
L132.1834 84.8857
" />
<path d="M132.1834 84.8857
L131.9929 84.8381
" />
<path d="M131.9929 84.8381
L131.8977 84.7905
" />
<path d="M131.8977 84.7905
L131.8024 84.6952
" />
<path d="M131.8024 84.6952
L131.7548 84.5524
" />
<path d="M131.7548 84.5524
L131.7548 84.4571
" />
<path d="M131.7548 84.4571
L131.8024 84.3143
" />
<path d="M131.8024 84.3143
L131.8501 84.2667
" />
<path d="M132.0882 83.4095
L132.7548 83.4095
" />
<path d="M131.7072 83.6476
L132.4215 83.8857
" />
<path d="M132.4215 83.8857
L132.4215 83.2667
" />
</g><g transform="rotate(-90.000000 134.5000 76.8000)">
<text x="134.5000" y="77.3000"
textLength="2.2500" font-size="1.3333" lengthAdjust="spacingAndGlyphs"
text-anchor="middle" opacity="0" stroke-opacity="0">U1</text>
</g>
<g class="stroked-text"><desc>U1</desc>
<path d="M133.9548 77.5619
L134.7643 77.5619
" />
<path d="M134.7643 77.5619
L134.8596 77.5143
" />
<path d="M134.8596 77.5143
L134.9072 77.4667
" />
<path d="M134.9072 77.4667
L134.9548 77.3714
" />
<path d="M134.9548 77.3714
L134.9548 77.1810
" />
<path d="M134.9548 77.1810
L134.9072 77.0857
" />
<path d="M134.9072 77.0857
L134.8596 77.0381
" />
<path d="M134.8596 77.0381
L134.7643 76.9905
" />
<path d="M134.7643 76.9905
L133.9548 76.9905
" />
<path d="M134.9548 75.9905
L134.9548 76.5619
" />
<path d="M134.9548 76.2762
L133.9548 76.2762
" />
<path d="M133.9548 76.2762
L134.0977 76.3714
" />
<path d="M134.0977 76.3714
L134.1929 76.4667
" />
<path d="M134.1929 76.4667
L134.2405 76.5619
" />
</g><g transform="rotate(-90.000000 129.9000 70.6000)">
<text x="129.9000" y="71.1000"
textLength="2.2024" font-size="1.3333" lengthAdjust="spacingAndGlyphs"
text-anchor="middle" opacity="0" stroke-opacity="0">C3</text>
</g>
<g class="stroked-text"><desc>C3</desc>
<path d="M130.2596 70.7667
L130.3072 70.8143
" />
<path d="M130.3072 70.8143
L130.3548 70.9571
" />
<path d="M130.3548 70.9571
L130.3548 71.0524
" />
<path d="M130.3548 71.0524
L130.3072 71.1952
" />
<path d="M130.3072 71.1952
L130.2120 71.2905
" />
<path d="M130.2120 71.2905
L130.1167 71.3381
" />
<path d="M130.1167 71.3381
L129.9262 71.3857
" />
<path d="M129.9262 71.3857
L129.7834 71.3857
" />
<path d="M129.7834 71.3857
L129.5929 71.3381
" />
<path d="M129.5929 71.3381
L129.4977 71.2905
" />
<path d="M129.4977 71.2905
L129.4024 71.1952
" />
<path d="M129.4024 71.1952
L129.3548 71.0524
" />
<path d="M129.3548 71.0524
L129.3548 70.9571
" />
<path d="M129.3548 70.9571
L129.4024 70.8143
" />
<path d="M129.4024 70.8143
L129.4501 70.7667
" />
<path d="M129.3548 70.4333
L129.3548 69.8143
" />
<path d="M129.3548 69.8143
L129.7358 70.1476
" />
<path d="M129.7358 70.1476
L129.7358 70.0048
" />
<path d="M129.7358 70.0048
L129.7834 69.9095
" />
<path d="M129.7834 69.9095
L129.8310 69.8619
" />
<path d="M129.8310 69.8619
L129.9262 69.8143
" />
<path d="M129.9262 69.8143
L130.1643 69.8143
" />
<path d="M130.1643 69.8143
L130.2596 69.8619
" />
<path d="M130.2596 69.8619
L130.3072 69.9095
" />
<path d="M130.3072 69.9095
L130.3548 70.0048
" />
<path d="M130.3548 70.0048
L130.3548 70.2905
" />
<path d="M130.3548 70.2905
L130.3072 70.3857
" />
<path d="M130.3072 70.3857
L130.2596 70.4333
" />
</g></g>
<g style="fill:none; 
stroke:#000000; stroke-width:0.1200; stroke-opacity:1; 
stroke-linecap:round; stroke-linejoin:round;">
<path d="M133.5406 80.3900
L133.2594 80.3900
" />
<path d="M133.5406 81.4100
L133.2594 81.4100
" />
<path d="M133.0650 83.3387
L133.0650 83.8613
" />
<path d="M134.5350 83.3387
L134.5350 83.8613
" />
<path d="M130.4650 75.1850
L130.6400 75.1850
" />
<path d="M130.4650 78.4050
L130.4650 75.1850
" />
<path d="M130.6400 78.4050
L130.4650 78.4050
" />
<path d="M133.5100 75.1850
L133.6850 75.1850
" />
<path d="M133.6850 75.1850
L133.6850 78.4050
" />
<path d="M133.6850 78.4050
L133.5100 78.4050
" />
<path style="fill:#000000; fill-opacity:1.0000; 
stroke:#000000; stroke-width:0.1200; stroke-opacity:1; 
stroke-linecap:round; stroke-linejoin:round;fill-rule:evenodd;"
d="M 133.8450,74.8750
133.5150,74.6350
133.8450,74.3950
Z" /> 
</g>
<g style="fill:none; 
stroke:#000000; stroke-width:0.1200; stroke-opacity:1; 
stroke-linecap:round; stroke-linejoin:round;">
<path d="M129.3900 73.6156
L129.3900 73.3344
" />
<path d="M130.4100 73.6156
L130.4100 73.3344
" />
</g> 
</svg>
