<?xml version="1.0" standalone="no"?>
 <!DOCTYPE svg PUBLIC "-//W3C//DTD SVG 1.1//EN" 
 "http://www.w3.org/Graphics/SVG/1.1/DTD/svg11.dtd"> 
<svg
  xmlns:svg="http://www.w3.org/2000/svg"
  xmlns="http://www.w3.org/2000/svg"
  xmlns:xlink="http://www.w3.org/1999/xlink"
  version="1.1"
  width="297.0022mm" height="210.0072mm" viewBox="0.0000 0.0000 297.0022 210.0072">
<title>SVG Image created as EL2039-F_Paste.svg date 2026/03/18 19:01:42 </title>
  <desc>Image generated by PCBNEW </desc>
<g style="fill:#000000; fill-opacity:1.0000;stroke:#000000; stroke-opacity:1.0000;
stroke-linecap:round; stroke-linejoin:round;"
 transform="translate(0 0) scale(1 1)">
<path style="fill:#000000; fill-opacity:1.0000; stroke:none;fill-rule:evenodd;"
d="M 134.6250,81.1500
134.6079,81.2361
134.5591,81.3091
134.4861,81.3579
134.4000,81.3750
133.9500,81.3750
133.8639,81.3579
133.7909,81.3091
133.7421,81.2361
133.7250,81.1500
133.7250,80.6500
133.7421,80.5639
133.7909,80.4909
133.8639,80.4421
133.9500,80.4250
134.4000,80.4250
134.4861,80.4421
134.5591,80.4909
134.6079,80.5639
134.6250,80.6500
Z" /> 
<path style="fill:#000000; fill-opacity:1.0000; stroke:none;fill-rule:evenodd;"
d="M 133.0750,81.1500
133.0579,81.2361
133.0091,81.3091
132.9361,81.3579
132.8500,81.3750
132.4000,81.3750
132.3139,81.3579
132.2409,81.3091
132.1921,81.2361
132.1750,81.1500
132.1750,80.6500
132.1921,80.5639
132.2409,80.4909
132.3139,80.4421
132.4000,80.4250
132.8500,80.4250
132.9361,80.4421
133.0091,80.4909
133.0579,80.5639
133.0750,80.6500
Z" /> 
<path style="fill:#000000; fill-opacity:1.0000; stroke:none;fill-rule:evenodd;"
d="M 134.2750,82.1500
134.3707,82.1690
134.4518,82.2232
134.5060,82.3043
134.5250,82.4000
134.5250,82.9000
134.5060,82.9957
134.4518,83.0768
134.3707,83.1310
134.2750,83.1500
133.3250,83.1500
133.2293,83.1310
133.1482,83.0768
133.0940,82.9957
133.0750,82.9000
133.0750,82.4000
133.0940,82.3043
133.1482,82.2232
133.2293,82.1690
133.3250,82.1500
Z" /> 
<path style="fill:#000000; fill-opacity:1.0000; stroke:none;fill-rule:evenodd;"
d="M 134.2750,84.0500
134.3707,84.0690
134.4518,84.1232
134.5060,84.2043
134.5250,84.3000
134.5250,84.8000
134.5060,84.8957
134.4518,84.9768
134.3707,85.0310
134.2750,85.0500
133.3250,85.0500
133.2293,85.0310
133.1482,84.9768
133.0940,84.8957
133.0750,84.8000
133.0750,84.3000
133.0940,84.2043
133.1482,84.1232
133.2293,84.0690
133.3250,84.0500
Z" /> 
<path style="fill:#000000; fill-opacity:1.0000; stroke:none;fill-rule:evenodd;"
d="M 132.7400,76.1200
132.7974,76.1314
132.8461,76.1639
132.8786,76.2126
132.8900,76.2700
132.8900,76.5700
132.8786,76.6274
132.8461,76.6761
132.7974,76.7086
132.7400,76.7200
132.3100,76.7200
132.2526,76.7086
132.2039,76.6761
132.1714,76.6274
132.1600,76.5700
132.1600,76.2700
132.1714,76.2126
132.2039,76.1639
132.2526,76.1314
132.3100,76.1200
Z" /> 
<path style="fill:#000000; fill-opacity:1.0000; stroke:none;fill-rule:evenodd;"
d="M 131.8400,76.1200
131.8974,76.1314
131.9461,76.1639
131.9786,76.2126
131.9900,76.2700
131.9900,76.5700
131.9786,76.6274
131.9461,76.6761
131.8974,76.7086
131.8400,76.7200
131.4100,76.7200
131.3526,76.7086
131.3039,76.6761
131.2714,76.6274
131.2600,76.5700
131.2600,76.2700
131.2714,76.2126
131.3039,76.1639
131.3526,76.1314
131.4100,76.1200
Z" /> 
<path style="fill:#000000; fill-opacity:1.0000; stroke:none;fill-rule:evenodd;"
d="M 132.7400,76.8700
132.7974,76.8814
132.8461,76.9139
132.8786,76.9626
132.8900,77.0200
132.8900,77.3200
132.8786,77.3774
132.8461,77.4261
132.7974,77.4586
132.7400,77.4700
132.3100,77.4700
132.2526,77.4586
132.2039,77.4261
132.1714,77.3774
132.1600,77.3200
132.1600,77.0200
132.1714,76.9626
132.2039,76.9139
132.2526,76.8814
132.3100,76.8700
Z" /> 
<path style="fill:#000000; fill-opacity:1.0000; stroke:none;fill-rule:evenodd;"
d="M 131.8400,76.8700
131.8974,76.8814
131.9461,76.9139
131.9786,76.9626
131.9900,77.0200
131.9900,77.3200
131.9786,77.3774
131.9461,77.4261
131.8974,77.4586
131.8400,77.4700
131.4100,77.4700
131.3526,77.4586
131.3039,77.4261
131.2714,77.3774
131.2600,77.3200
131.2600,77.0200
131.2714,76.9626
131.3039,76.9139
131.3526,76.8814
131.4100,76.8700
Z" /> 
<path style="fill:#000000; fill-opacity:1.0000; stroke:none;fill-rule:evenodd;"
d="M 133.1500,73.8950
133.1883,73.9026
133.2207,73.9243
133.2424,73.9567
133.2500,73.9950
133.2500,75.3700
133.2424,75.4083
133.2207,75.4407
133.1883,75.4624
133.1500,75.4700
132.9500,75.4700
132.9117,75.4624
132.8793,75.4407
132.8576,75.4083
132.8500,75.3700
132.8500,73.9950
132.8576,73.9567
132.8793,73.9243
132.9117,73.9026
132.9500,73.8950
Z" /> 
<path style="fill:#000000; fill-opacity:1.0000; stroke:none;fill-rule:evenodd;"
d="M 132.5000,73.8950
132.5383,73.9026
132.5707,73.9243
132.5924,73.9567
132.6000,73.9950
132.6000,75.3700
132.5924,75.4083
132.5707,75.4407
132.5383,75.4624
132.5000,75.4700
132.3000,75.4700
132.2617,75.4624
132.2293,75.4407
132.2076,75.4083
132.2000,75.3700
132.2000,73.9950
132.2076,73.9567
132.2293,73.9243
132.2617,73.9026
132.3000,73.8950
Z" /> 
<path style="fill:#000000; fill-opacity:1.0000; stroke:none;fill-rule:evenodd;"
d="M 131.8500,73.8950
131.8883,73.9026
131.9207,73.9243
131.9424,73.9567
131.9500,73.9950
131.9500,75.3700
131.9424,75.4083
131.9207,75.4407
131.8883,75.4624
131.8500,75.4700
131.6500,75.4700
131.6117,75.4624
131.5793,75.4407
131.5576,75.4083
131.5500,75.3700
131.5500,73.9950
131.5576,73.9567
131.5793,73.9243
131.6117,73.9026
131.6500,73.8950
Z" /> 
<path style="fill:#000000; fill-opacity:1.0000; stroke:none;fill-rule:evenodd;"
d="M 131.2000,73.8950
131.2383,73.9026
131.2707,73.9243
131.2924,73.9567
131.3000,73.9950
131.3000,75.3700
131.2924,75.4083
131.2707,75.4407
131.2383,75.4624
131.2000,75.4700
131.0000,75.4700
130.9617,75.4624
130.9293,75.4407
130.9076,75.4083
130.9000,75.3700
130.9000,73.9950
130.9076,73.9567
130.9293,73.9243
130.9617,73.9026
131.0000,73.8950
Z" /> 
<path style="fill:#000000; fill-opacity:1.0000; stroke:none;fill-rule:evenodd;"
d="M 131.2000,78.1200
131.2383,78.1276
131.2707,78.1493
131.2924,78.1817
131.3000,78.2200
131.3000,79.5950
131.2924,79.6333
131.2707,79.6657
131.2383,79.6874
131.2000,79.6950
131.0000,79.6950
130.9617,79.6874
130.9293,79.6657
130.9076,79.6333
130.9000,79.5950
130.9000,78.2200
130.9076,78.1817
130.9293,78.1493
130.9617,78.1276
131.0000,78.1200
Z" /> 
<path style="fill:#000000; fill-opacity:1.0000; stroke:none;fill-rule:evenodd;"
d="M 131.8500,78.1200
131.8883,78.1276
131.9207,78.1493
131.9424,78.1817
131.9500,78.2200
131.9500,79.5950
131.9424,79.6333
131.9207,79.6657
131.8883,79.6874
131.8500,79.6950
131.6500,79.6950
131.6117,79.6874
131.5793,79.6657
131.5576,79.6333
131.5500,79.5950
131.5500,78.2200
131.5576,78.1817
131.5793,78.1493
131.6117,78.1276
131.6500,78.1200
Z" /> 
<path style="fill:#000000; fill-opacity:1.0000; stroke:none;fill-rule:evenodd;"
d="M 132.5000,78.1200
132.5383,78.1276
132.5707,78.1493
132.5924,78.1817
132.6000,78.2200
132.6000,79.5950
132.5924,79.6333
132.5707,79.6657
132.5383,79.6874
132.5000,79.6950
132.3000,79.6950
132.2617,79.6874
132.2293,79.6657
132.2076,79.6333
132.2000,79.5950
132.2000,78.2200
132.2076,78.1817
132.2293,78.1493
132.2617,78.1276
132.3000,78.1200
Z" /> 
<path style="fill:#000000; fill-opacity:1.0000; stroke:none;fill-rule:evenodd;"
d="M 133.1500,78.1200
133.1883,78.1276
133.2207,78.1493
133.2424,78.1817
133.2500,78.2200
133.2500,79.5950
133.2424,79.6333
133.2207,79.6657
133.1883,79.6874
133.1500,79.6950
132.9500,79.6950
132.9117,79.6874
132.8793,79.6657
132.8576,79.6333
132.8500,79.5950
132.8500,78.2200
132.8576,78.1817
132.8793,78.1493
132.9117,78.1276
132.9500,78.1200
Z" /> 
<path style="fill:#000000; fill-opacity:1.0000; stroke:none;fill-rule:evenodd;"
d="M 129.6500,74.7000
129.5639,74.6829
129.4909,74.6341
129.4421,74.5611
129.4250,74.4750
129.4250,74.0250
129.4421,73.9389
129.4909,73.8659
129.5639,73.8171
129.6500,73.8000
130.1500,73.8000
130.2361,73.8171
130.3091,73.8659
130.3579,73.9389
130.3750,74.0250
130.3750,74.4750
130.3579,74.5611
130.3091,74.6341
130.2361,74.6829
130.1500,74.7000
Z" /> 
<path style="fill:#000000; fill-opacity:1.0000; stroke:none;fill-rule:evenodd;"
d="M 129.6500,73.1500
129.5639,73.1329
129.4909,73.0841
129.4421,73.0111
129.4250,72.9250
129.4250,72.4750
129.4421,72.3889
129.4909,72.3159
129.5639,72.2671
129.6500,72.2500
130.1500,72.2500
130.2361,72.2671
130.3091,72.3159
130.3579,72.3889
130.3750,72.4750
130.3750,72.9250
130.3579,73.0111
130.3091,73.0841
130.2361,73.1329
130.1500,73.1500
Z" /> 
</g> 
</svg>
