<?xml version="1.0" standalone="no"?>
 <!DOCTYPE svg PUBLIC "-//W3C//DTD SVG 1.1//EN" 
 "http://www.w3.org/Graphics/SVG/1.1/DTD/svg11.dtd"> 
<svg
  xmlns:svg="http://www.w3.org/2000/svg"
  xmlns="http://www.w3.org/2000/svg"
  xmlns:xlink="http://www.w3.org/1999/xlink"
  version="1.1"
  width="297.0022mm" height="210.0072mm" viewBox="0.0000 0.0000 297.0022 210.0072">
<title>SVG Image created as EL2039-B_Cu.svg date 2026/03/18 19:01:42 </title>
  <desc>Image generated by PCBNEW </desc>
<g style="fill:#000000; fill-opacity:1.0000;stroke:#000000; stroke-opacity:1.0000;
stroke-linecap:round; stroke-linejoin:round;"
 transform="translate(0 0) scale(1 1)">
<path style="fill:#000000; fill-opacity:1.0000; stroke:none;fill-rule:evenodd;"
d="M 127.4650,71.2700
127.4840,71.1743
127.5382,71.0932
127.6193,71.0390
127.7150,71.0200
128.8150,71.0200
128.9107,71.0390
128.9918,71.0932
129.0460,71.1743
129.0650,71.2700
129.0650,72.3700
129.0460,72.4657
128.9918,72.5468
128.9107,72.6010
128.8150,72.6200
127.7150,72.6200
127.6193,72.6010
127.5382,72.5468
127.4840,72.4657
127.4650,72.3700
Z" /> 
</g>
<g style="fill:#000000; fill-opacity:1.0000; stroke:none;">
<circle cx="128.2650" cy="74.3600" r="0.8000" /> 
</g>
<g style="fill:#000000; fill-opacity:1.0000; stroke:none;">
<circle cx="128.2650" cy="76.9000" r="0.8000" /> 
</g>
<g style="fill:#000000; fill-opacity:1.0000; stroke:none;">
<circle cx="128.2650" cy="79.4400" r="0.8000" /> 
</g>
<g style="fill:#000000; fill-opacity:1.0000; stroke:none;">
<circle cx="128.2650" cy="81.9800" r="0.8000" /> 
</g>
<g style="fill:#000000; fill-opacity:1.0000; stroke:none;">
<circle cx="128.2650" cy="84.5200" r="0.8000" /> 
</g>
<g style="fill:#000000; fill-opacity:1.0000; stroke:none;">
<circle cx="128.2650" cy="87.0600" r="0.8000" /> 
</g>
<g style="fill:#000000; fill-opacity:1.0000; stroke:none;">
<circle cx="135.8850" cy="87.0600" r="0.8000" /> 
</g>
<g style="fill:#000000; fill-opacity:1.0000; stroke:none;">
<circle cx="135.8850" cy="84.5200" r="0.8000" /> 
</g>
<g style="fill:#000000; fill-opacity:1.0000; stroke:none;">
<circle cx="135.8850" cy="81.9800" r="0.8000" /> 
</g>
<g style="fill:#000000; fill-opacity:1.0000; stroke:none;">
<circle cx="135.8850" cy="79.4400" r="0.8000" /> 
</g>
<g style="fill:#000000; fill-opacity:1.0000; stroke:none;">
<circle cx="135.8850" cy="76.9000" r="0.8000" /> 
</g>
<g style="fill:#000000; fill-opacity:1.0000; stroke:none;">
<circle cx="135.8850" cy="74.3600" r="0.8000" /> 
</g>
<g style="fill:#000000; fill-opacity:1.0000; stroke:none;">
<circle cx="135.8850" cy="71.8200" r="0.8000" /> 
<path style="fill:#000000; fill-opacity:1.0000; stroke:none;fill-rule:evenodd;"
d="M 134.0000,78.6750
133.9829,78.7611
133.9341,78.8341
133.8611,78.8829
133.7750,78.9000
133.3250,78.9000
133.2389,78.8829
133.1659,78.8341
133.1171,78.7611
133.1000,78.6750
133.1000,77.9250
133.1171,77.8389
133.1659,77.7659
133.2389,77.7171
133.3250,77.7000
133.7750,77.7000
133.8611,77.7171
133.9341,77.7659
133.9829,77.8389
134.0000,77.9250
Z" /> 
<path style="fill:#000000; fill-opacity:1.0000; stroke:none;fill-rule:evenodd;"
d="M 130.7000,78.6750
130.6829,78.7611
130.6341,78.8341
130.5611,78.8829
130.4750,78.9000
130.0250,78.9000
129.9389,78.8829
129.8659,78.8341
129.8171,78.7611
129.8000,78.6750
129.8000,77.9250
129.8171,77.8389
129.8659,77.7659
129.9389,77.7171
130.0250,77.7000
130.4750,77.7000
130.5611,77.7171
130.6341,77.7659
130.6829,77.8389
130.7000,77.9250
Z" /> 
<path style="fill:#000000; fill-opacity:1.0000; stroke:none;fill-rule:evenodd;"
d="M 134.0450,69.1950
134.1407,69.2140
134.2218,69.2682
134.2760,69.3493
134.2950,69.4450
134.2950,71.0150
134.2760,71.1107
134.2218,71.1918
134.1407,71.2460
134.0450,71.2650
132.1550,71.2650
132.0593,71.2460
131.9782,71.1918
131.9240,71.1107
131.9050,71.0150
131.9050,69.4450
131.9240,69.3493
131.9782,69.2682
132.0593,69.2140
132.1550,69.1950
Z" /> 
<path style="fill:#000000; fill-opacity:1.0000; stroke:none;fill-rule:evenodd;"
d="M 134.0450,74.1350
134.1407,74.1540
134.2218,74.2082
134.2760,74.2893
134.2950,74.3850
134.2950,75.9550
134.2760,76.0507
134.2218,76.1318
134.1407,76.1860
134.0450,76.2050
132.1550,76.2050
132.0593,76.1860
131.9782,76.1318
131.9240,76.0507
131.9050,75.9550
131.9050,74.3850
131.9240,74.2893
131.9782,74.2082
132.0593,74.1540
132.1550,74.1350
Z" /> 
<path style="fill:#000000; fill-opacity:1.0000; stroke:none;fill-rule:evenodd;"
d="M 129.6250,74.5500
129.5293,74.5310
129.4482,74.4768
129.3940,74.3957
129.3750,74.3000
129.3750,73.8000
129.3940,73.7043
129.4482,73.6232
129.5293,73.5690
129.6250,73.5500
130.5750,73.5500
130.6707,73.5690
130.7518,73.6232
130.8060,73.7043
130.8250,73.8000
130.8250,74.3000
130.8060,74.3957
130.7518,74.4768
130.6707,74.5310
130.5750,74.5500
Z" /> 
<path style="fill:#000000; fill-opacity:1.0000; stroke:none;fill-rule:evenodd;"
d="M 129.6250,72.6500
129.5293,72.6310
129.4482,72.5768
129.3940,72.4957
129.3750,72.4000
129.3750,71.9000
129.3940,71.8043
129.4482,71.7232
129.5293,71.6690
129.6250,71.6500
130.5750,71.6500
130.6707,71.6690
130.7518,71.7232
130.8060,71.8043
130.8250,71.9000
130.8250,72.4000
130.8060,72.4957
130.7518,72.5768
130.6707,72.6310
130.5750,72.6500
Z" /> 
</g>
<g style="fill:#000000; fill-opacity:1.0000; stroke:none;">
<circle cx="129.9000" cy="76.0000" r="0.3000" /> 
</g>
<g style="fill:#000000; fill-opacity:1.0000; stroke:none;">
<circle cx="129.9000" cy="75.2000" r="0.3000" /> 
</g>
<g style="fill:#000000; fill-opacity:1.0000; stroke:none;">
<circle cx="131.5000" cy="76.4000" r="0.3000" /> 
</g>
<g style="fill:#000000; fill-opacity:1.0000; stroke:none;">
<circle cx="134.3707" cy="85.9600" r="0.4000" /> 
</g>
<g style="fill:#000000; fill-opacity:1.0000; stroke:none;">
<circle cx="137.5000" cy="80.1261" r="0.4000" /> 
</g>
<g style="fill:#000000; fill-opacity:1.0000; stroke:none;">
<circle cx="129.2400" cy="85.9600" r="0.4000" /> 
</g>
<g style="fill:#000000; fill-opacity:1.0000; stroke:none;">
<circle cx="129.8304" cy="69.9000" r="0.4000" /> 
</g>
<g style="fill:#000000; fill-opacity:1.0000; stroke:none;">
<circle cx="132.2000" cy="84.0000" r="0.4000" /> 
</g>
<g style="fill:#000000; fill-opacity:1.0000; stroke:none;">
<circle cx="127.9783" cy="88.5000" r="0.4000" /> 
</g>
<g style="fill:#000000; fill-opacity:1.0000; stroke:none;">
<circle cx="126.7000" cy="71.8826" r="0.4000" /> 
</g>
<g style="fill:#000000; fill-opacity:1.0000; stroke:none;">
<circle cx="137.5000" cy="72.4565" r="0.4000" /> 
</g>
<g style="fill:#000000; fill-opacity:1.0000; stroke:none;">
<circle cx="126.7000" cy="84.6652" r="0.4000" /> 
</g>
<g style="fill:#000000; fill-opacity:1.0000; stroke:none;">
<circle cx="129.2400" cy="83.3947" r="0.4000" /> 
</g>
<g style="fill:#000000; fill-opacity:1.0000; stroke:none;">
<circle cx="131.1000" cy="70.9000" r="0.4000" /> 
</g>
<g style="fill:#000000; fill-opacity:1.0000; stroke:none;">
<circle cx="137.5000" cy="85.2391" r="0.4000" /> 
</g>
<g style="fill:#000000; fill-opacity:1.0000; stroke:none;">
<circle cx="127.2739" cy="69.9000" r="0.4000" /> 
</g>
<g style="fill:#000000; fill-opacity:1.0000; stroke:none;">
<circle cx="126.7000" cy="82.1087" r="0.4000" /> 
</g>
<g style="fill:#000000; fill-opacity:1.0000; stroke:none;">
<circle cx="137.5000" cy="82.6826" r="0.4000" /> 
</g>
<g style="fill:#000000; fill-opacity:1.0000; stroke:none;">
<circle cx="137.5000" cy="75.0130" r="0.4000" /> 
</g>
<g style="fill:#000000; fill-opacity:1.0000; stroke:none;">
<circle cx="129.2400" cy="80.8293" r="0.4000" /> 
</g>
<g style="fill:#000000; fill-opacity:1.0000; stroke:none;">
<circle cx="132.2000" cy="82.2000" r="0.4000" /> 
</g>
<g style="fill:#000000; fill-opacity:1.0000; stroke:none;">
<circle cx="130.5348" cy="88.5000" r="0.4000" /> 
</g>
<g style="fill:#000000; fill-opacity:1.0000; stroke:none;">
<circle cx="137.5000" cy="87.7956" r="0.4000" /> 
</g>
<g style="fill:#000000; fill-opacity:1.0000; stroke:none;">
<circle cx="137.5000" cy="77.5696" r="0.4000" /> 
</g>
<g style="fill:#000000; fill-opacity:1.0000; stroke:none;">
<circle cx="126.7000" cy="74.4391" r="0.4000" /> 
</g>
<g style="fill:#000000; fill-opacity:1.0000; stroke:none;">
<circle cx="137.5000" cy="69.9000" r="0.4000" /> 
</g>
<g style="fill:#000000; fill-opacity:1.0000; stroke:none;">
<circle cx="132.5000" cy="77.2000" r="0.3000" /> 
</g>
<g style="fill:#000000; fill-opacity:1.0000; stroke:none;">
<circle cx="131.5000" cy="77.2000" r="0.3000" /> 
</g>
<g style="fill:#000000; fill-opacity:1.0000; stroke:none;">
<circle cx="134.9435" cy="69.9000" r="0.4000" /> 
</g>
<g style="fill:#000000; fill-opacity:1.0000; stroke:none;">
<circle cx="126.7000" cy="87.2217" r="0.4000" /> 
</g>
<g style="fill:#000000; fill-opacity:1.0000; stroke:none;">
<circle cx="126.7000" cy="76.9957" r="0.4000" /> 
</g>
<g style="fill:#000000; fill-opacity:1.0000; stroke:none;">
<circle cx="132.7000" cy="85.6000" r="0.4000" /> 
</g>
<g style="fill:#000000; fill-opacity:1.0000; stroke:none;">
<circle cx="126.7000" cy="79.5522" r="0.4000" /> 
</g>
<g style="fill:#000000; fill-opacity:1.0000; stroke:none;">
<circle cx="135.6478" cy="88.5000" r="0.4000" /> 
</g>
<g style="fill:#000000; fill-opacity:1.0000; stroke:none;">
<circle cx="133.7000" cy="72.7000" r="0.4000" /> 
</g>
<g style="fill:#000000; fill-opacity:1.0000; stroke:none;">
<circle cx="133.0913" cy="88.5000" r="0.4000" /> 
</g>
<g style="fill:none; 
stroke:#000000; stroke-width:0.5000; stroke-opacity:1; 
stroke-linecap:round; stroke-linejoin:round;">
<path d="M128.8500 76.9000
L130.2500 78.3000
" />
<path d="M128.2650 76.9000
L128.8500 76.9000
" />
<path style="fill:#000000; fill-opacity:1.0000; stroke:none;fill-rule:evenodd;"
d="M 138.2675,69.1102
138.3133,69.1630
138.3245,69.2145
138.3245,89.1655
138.3048,89.2325
138.2520,89.2783
138.2005,89.2895
125.9895,89.2895
125.9225,89.2698
125.8767,89.2170
125.8655,89.1655
125.8655,86.9565
134.8345,86.9565
134.8345,87.1635
134.8749,87.3664
134.8749,87.3664
134.9541,87.5576
135.0690,87.7297
135.2153,87.8760
135.2153,87.8760
135.3874,87.9909
135.5786,88.0701
135.7815,88.1105
135.7815,88.1105
135.7815,88.1105
135.9885,88.1105
135.9885,88.1105
136.1914,88.0701
136.3826,87.9909
136.5547,87.8760
136.7010,87.7297
136.8159,87.5576
136.8951,87.3664
136.9355,87.1635
136.9355,86.9565
136.8951,86.7536
136.8159,86.5624
136.7010,86.3903
136.7010,86.3903
136.5547,86.2440
136.4686,86.1865
136.3826,86.1291
136.1914,86.0499
136.1914,86.0499
135.9885,86.0095
135.9885,86.0095
135.7815,86.0095
135.7815,86.0095
135.5786,86.0499
135.5786,86.0499
135.3874,86.1291
135.2153,86.2440
135.0690,86.3903
134.9541,86.5624
134.8749,86.7536
134.8749,86.7536
134.8345,86.9565
125.8655,86.9565
125.8655,81.8765
134.8345,81.8765
134.8345,82.0835
134.8749,82.2864
134.8749,82.2864
134.9541,82.4776
135.0690,82.6497
135.2153,82.7960
135.2153,82.7960
135.3874,82.9109
135.5786,82.9901
135.7815,83.0305
135.7815,83.0305
135.7815,83.0305
135.9885,83.0305
135.9885,83.0305
136.1914,82.9901
136.3826,82.9109
136.5547,82.7960
136.7010,82.6497
136.8159,82.4776
136.8951,82.2864
136.9355,82.0835
136.9355,81.8765
136.8951,81.6736
136.8159,81.4824
136.7010,81.3103
136.7010,81.3103
136.5547,81.1640
136.4686,81.1065
136.3826,81.0491
136.1914,80.9699
136.1914,80.9699
135.9885,80.9295
135.9885,80.9295
135.7815,80.9295
135.7815,80.9295
135.5786,80.9699
135.5786,80.9699
135.3874,81.0491
135.2153,81.1640
135.0690,81.3103
134.9541,81.4824
134.8749,81.6736
134.8749,81.6736
134.8345,81.8765
125.8655,81.8765
125.8655,76.7965
127.2145,76.7965
127.2145,77.0035
127.2491,77.1775
127.2549,77.2064
127.3341,77.3976
127.3812,77.4682
127.4490,77.5697
127.5953,77.7160
127.5953,77.7160
127.7674,77.8309
127.9586,77.9101
128.1615,77.9505
128.1615,77.9505
128.1615,77.9505
128.3685,77.9505
128.3685,77.9505
128.5714,77.9101
128.7626,77.8309
128.7626,77.8309
128.7626,77.8309
128.8641,77.7631
128.9308,77.7422
128.9982,77.7607
129.0207,77.7785
129.5132,78.2710
129.5467,78.3323
129.5495,78.3587
129.5495,78.7205
129.5495,78.7205
129.5556,78.7771
129.6034,78.9052
129.6853,79.0147
129.7948,79.0966
129.9229,79.1444
129.9795,79.1505
130.5205,79.1505
130.5771,79.1444
130.7052,79.0966
130.8147,79.0147
130.8966,78.9052
130.9444,78.7771
130.9467,78.7559
130.9505,78.7205
130.9505,78.7205
130.9505,78.7205
130.9505,77.8795
130.9444,77.8229
130.8966,77.6948
130.8147,77.5853
130.7489,77.5361
130.7052,77.5034
130.7052,77.5034
130.5771,77.4556
130.5771,77.4556
130.5771,77.4556
130.5205,77.4495
130.5205,77.4495
130.1587,77.4495
130.0916,77.4298
130.0710,77.4132
129.3074,76.6496
129.2764,76.5979
129.2751,76.5936
129.2751,76.5936
129.1959,76.4024
129.1825,76.3823
129.1812,76.3780
129.1779,76.3748
129.1708,76.3449
129.1617,76.3156
129.1629,76.3112
129.1618,76.3068
129.1720,76.2779
129.1801,76.2483
129.1835,76.2452
129.1851,76.2409
129.2093,76.2221
129.2321,76.2016
129.2366,76.2009
129.2402,76.1980
129.2708,76.1953
129.3011,76.1904
129.3065,76.1921
129.3098,76.1918
129.3431,76.2036
129.3667,76.2159
129.4166,76.2638
129.4595,76.3380
129.5620,76.4405
129.5620,76.4405
129.5620,76.4405
129.6875,76.5130
129.6875,76.5130
129.6875,76.5130
129.8275,76.5505
129.8275,76.5505
129.9725,76.5505
129.9725,76.5505
130.1125,76.5130
130.2380,76.4405
130.3405,76.3380
130.3524,76.3175
130.4029,76.2693
130.4597,76.2555
131.0701,76.2555
131.0716,76.2554
131.0974,76.2540
131.1238,76.2512
131.2189,76.2214
131.2516,76.2036
131.2802,76.1879
131.2802,76.1879
131.2802,76.1879
131.2842,76.1850
131.2965,76.1769
131.3720,76.1333
131.4019,76.1209
131.4454,76.1092
131.4775,76.1050
131.5225,76.1050
131.5546,76.1092
131.5981,76.1209
131.6280,76.1333
131.6670,76.1558
131.6927,76.1755
131.6951,76.1779
131.7066,76.1912
131.7112,76.1973
131.7112,76.1973
131.7515,76.2512
131.7590,76.2612
131.7795,76.3034
131.7908,76.3454
131.7950,76.3775
131.7950,76.4225
131.7908,76.4546
131.7698,76.5329
131.7676,76.5417
131.7676,76.5418
131.7656,76.5504
131.7628,76.5936
131.7603,76.6319
131.7669,76.7015
131.7753,76.7462
131.8204,76.8351
131.8204,76.8351
131.8636,76.8900
131.8948,76.9232
131.9490,76.9549
131.9809,76.9736
132.0469,76.9964
132.0911,77.0074
132.1476,77.0050
132.1907,77.0033
132.1907,77.0033
132.1907,77.0033
132.2586,76.9868
132.3261,76.9598
132.3720,76.9333
132.4019,76.9209
132.4454,76.9092
132.4775,76.9050
132.5225,76.9050
132.5546,76.9092
132.5981,76.9209
132.6280,76.9333
132.6670,76.9558
132.6927,76.9755
132.7245,77.0073
132.7442,77.0330
132.7667,77.0720
132.7791,77.1019
132.7908,77.1454
132.7950,77.1775
132.7950,77.2225
132.7908,77.2546
132.7569,77.3809
132.7542,77.3983
132.7532,77.4020
132.7532,77.4020
132.7462,77.4556
132.7445,77.4682
132.7445,78.9760
132.7503,79.0303
132.7615,79.0818
132.7615,79.0818
132.7688,79.1082
132.7688,79.1082
132.8181,79.1948
132.8181,79.1948
132.8181,79.1948
132.8446,79.2254
132.8639,79.2476
132.8639,79.2476
132.8639,79.2476
132.8966,79.2793
132.9850,79.3255
132.9850,79.3255
132.9850,79.3255
133.0292,79.3385
133.0520,79.3451
133.0520,79.3451
133.0520,79.3452
133.0637,79.3468
133.1240,79.3555
133.1240,79.3555
134.2760,79.3555
134.3303,79.3497
134.3818,79.3385
134.4082,79.3312
134.4371,79.3148
134.4948,79.2819
134.4948,79.2819
134.4948,79.2819
134.5476,79.2361
134.5793,79.2034
134.6255,79.1150
134.6275,79.1082
134.6352,79.0818
134.6452,79.0480
134.6555,78.9760
134.6555,73.7240
134.6497,73.6697
134.6385,73.6182
134.6312,73.5918
134.6312,73.5918
134.5819,73.5052
134.5819,73.5052
134.5819,73.5052
134.5361,73.4524
134.5034,73.4207
134.4150,73.3745
134.4150,73.3745
134.4150,73.3745
134.4150,73.3745
134.3480,73.3549
134.3480,73.3548
134.2760,73.3445
134.2760,73.3445
130.8083,73.3445
130.7650,73.3367
130.6825,73.3059
130.6825,73.3059
130.6229,73.2995
130.6229,73.2995
130.6229,73.2995
130.6229,73.2995
129.5771,73.2995
129.5771,73.2995
129.5175,73.3059
129.3827,73.3562
129.3827,73.3562
129.2675,73.4425
129.2674,73.4425
129.2528,73.4620
129.2528,73.4620
129.2482,73.4682
129.2207,73.4966
129.2065,73.5239
129.2005,73.5319
129.2005,73.5319
129.1812,73.5577
129.1309,73.6925
129.1309,73.6925
129.1245,73.7521
129.1245,73.7521
129.1245,73.7521
129.1245,74.3479
129.1245,74.3479
129.1309,74.4075
129.1367,74.4230
129.1445,74.4663
129.1445,75.8760
129.1503,75.9303
129.1615,75.9818
129.1621,75.9837
129.1608,76.0535
129.1220,76.1116
129.0579,76.1395
128.9889,76.1283
128.9548,76.1042
128.9347,76.0840
128.7817,75.9818
128.7626,75.9691
128.6691,75.9303
128.5714,75.8899
128.5714,75.8899
128.3685,75.8495
128.3685,75.8495
128.1615,75.8495
128.1615,75.8495
127.9586,75.8899
127.9586,75.8899
127.7674,75.9691
127.5953,76.0840
127.4490,76.2303
127.3341,76.4024
127.2549,76.5936
127.2549,76.5936
127.2145,76.7965
125.8655,76.7965
125.8655,71.2221
127.2145,71.2221
127.2145,72.4179
127.2145,72.4179
127.2209,72.4775
127.2712,72.6123
127.2712,72.6123
127.3575,72.7275
127.3575,72.7275
127.4727,72.8138
127.4727,72.8138
127.6075,72.8641
127.6075,72.8641
127.6144,72.8648
127.6671,72.8705
128.8629,72.8705
128.9225,72.8641
129.0573,72.8138
129.1725,72.7275
129.2588,72.6123
129.3091,72.4775
129.3155,72.4179
129.3155,71.7165
134.8345,71.7165
134.8345,71.9235
134.8749,72.1264
134.8749,72.1264
134.9541,72.3176
135.0690,72.4897
135.2153,72.6360
135.2153,72.6360
135.3874,72.7509
135.5786,72.8301
135.7493,72.8641
135.7815,72.8705
135.7815,72.8705
135.7815,72.8705
135.9885,72.8705
135.9885,72.8705
136.1914,72.8301
136.3826,72.7509
136.5547,72.6360
136.7010,72.4897
136.8159,72.3176
136.8951,72.1264
136.9355,71.9235
136.9355,71.7165
136.8951,71.5136
136.8159,71.3224
136.7010,71.1503
136.7010,71.1503
136.5547,71.0040
136.4176,70.9125
136.3826,70.8891
136.1914,70.8099
136.1914,70.8099
135.9885,70.7695
135.9885,70.7695
135.7815,70.7695
135.7815,70.7695
135.5786,70.8099
135.5786,70.8099
135.3874,70.8891
135.2153,71.0040
135.0690,71.1503
134.9541,71.3224
134.8749,71.5136
134.8749,71.5136
134.8345,71.7165
129.3155,71.7165
129.3155,71.2221
129.3091,71.1625
129.3046,71.1503
129.2588,71.0277
129.2588,71.0277
129.1725,70.9125
129.1725,70.9125
129.0573,70.8262
129.0573,70.8262
128.9225,70.7759
128.9225,70.7759
128.8629,70.7695
128.8629,70.7695
128.8629,70.7695
128.8629,70.7695
127.6671,70.7695
127.6671,70.7695
127.6075,70.7759
127.4727,70.8262
127.4727,70.8262
127.3575,70.9125
127.3575,70.9125
127.2712,71.0277
127.2712,71.0277
127.2209,71.1625
127.2145,71.2221
127.2145,71.2221
127.2145,71.2221
125.8655,71.2221
125.8655,69.2145
125.8852,69.1475
125.9380,69.1017
125.9895,69.0905
138.2005,69.0905
Z" /> 
<path style="fill:#000000; fill-opacity:1.0000; stroke:none;fill-rule:evenodd;"
d="M 134.3430,73.6197
134.3888,73.6725
134.4000,73.7240
134.4000,78.9760
134.3803,79.0430
134.3275,79.0888
134.2760,79.1000
133.1240,79.1000
133.0570,79.0803
133.0112,79.0275
133.0000,78.9760
133.0000,77.4682
133.0126,77.4211
133.0099,77.4200
133.0130,77.4125
133.0130,77.4125
133.0505,77.2725
133.0505,77.1275
133.0130,76.9875
132.9405,76.8620
132.8380,76.7595
132.8380,76.7595
132.8380,76.7595
132.7125,76.6870
132.7125,76.6870
132.6758,76.6772
132.5725,76.6495
132.4275,76.6495
132.3242,76.6772
132.2875,76.6870
132.1984,76.7385
132.1305,76.7550
132.0644,76.7321
132.0213,76.6772
132.0146,76.6076
132.0166,76.5990
132.0505,76.4725
132.0505,76.3275
132.0130,76.1875
131.9405,76.0620
131.8380,75.9595
131.8380,75.9595
131.8380,75.9595
131.7125,75.8870
131.7125,75.8870
131.6714,75.8760
131.5725,75.8495
131.4275,75.8495
131.3286,75.8760
131.2875,75.8870
131.1620,75.9595
131.1620,75.9595
131.1578,75.9637
131.0965,75.9972
131.0701,76.0000
129.5240,76.0000
129.4570,75.9803
129.4112,75.9275
129.4000,75.8760
129.4000,73.7240
129.4197,73.6570
129.4725,73.6112
129.5240,73.6000
134.2760,73.6000
Z" /> 
</g> 
</svg>
