<?xml version="1.0" standalone="no"?>
 <!DOCTYPE svg PUBLIC "-//W3C//DTD SVG 1.1//EN" 
 "http://www.w3.org/Graphics/SVG/1.1/DTD/svg11.dtd"> 
<svg
  xmlns:svg="http://www.w3.org/2000/svg"
  xmlns="http://www.w3.org/2000/svg"
  xmlns:xlink="http://www.w3.org/1999/xlink"
  version="1.1"
  width="297.0022mm" height="210.0072mm" viewBox="0.0000 0.0000 297.0022 210.0072">
<title>SVG Image created as EL2039-F_Cu.svg date 2026/03/18 19:01:42 </title>
  <desc>Image generated by PCBNEW </desc>
<g style="fill:#000000; fill-opacity:1.0000;stroke:#000000; stroke-opacity:1.0000;
stroke-linecap:round; stroke-linejoin:round;"
 transform="translate(0 0) scale(1 1)">
<path style="fill:#000000; fill-opacity:1.0000; stroke:none;fill-rule:evenodd;"
d="M 134.6250,81.1500
134.6079,81.2361
134.5591,81.3091
134.4861,81.3579
134.4000,81.3750
133.9500,81.3750
133.8639,81.3579
133.7909,81.3091
133.7421,81.2361
133.7250,81.1500
133.7250,80.6500
133.7421,80.5639
133.7909,80.4909
133.8639,80.4421
133.9500,80.4250
134.4000,80.4250
134.4861,80.4421
134.5591,80.4909
134.6079,80.5639
134.6250,80.6500
Z" /> 
<path style="fill:#000000; fill-opacity:1.0000; stroke:none;fill-rule:evenodd;"
d="M 133.0750,81.1500
133.0579,81.2361
133.0091,81.3091
132.9361,81.3579
132.8500,81.3750
132.4000,81.3750
132.3139,81.3579
132.2409,81.3091
132.1921,81.2361
132.1750,81.1500
132.1750,80.6500
132.1921,80.5639
132.2409,80.4909
132.3139,80.4421
132.4000,80.4250
132.8500,80.4250
132.9361,80.4421
133.0091,80.4909
133.0579,80.5639
133.0750,80.6500
Z" /> 
<path style="fill:#000000; fill-opacity:1.0000; stroke:none;fill-rule:evenodd;"
d="M 127.4650,71.2700
127.4840,71.1743
127.5382,71.0932
127.6193,71.0390
127.7150,71.0200
128.8150,71.0200
128.9107,71.0390
128.9918,71.0932
129.0460,71.1743
129.0650,71.2700
129.0650,72.3700
129.0460,72.4657
128.9918,72.5468
128.9107,72.6010
128.8150,72.6200
127.7150,72.6200
127.6193,72.6010
127.5382,72.5468
127.4840,72.4657
127.4650,72.3700
Z" /> 
</g>
<g style="fill:#000000; fill-opacity:1.0000; stroke:none;">
<circle cx="128.2650" cy="74.3600" r="0.8000" /> 
</g>
<g style="fill:#000000; fill-opacity:1.0000; stroke:none;">
<circle cx="128.2650" cy="76.9000" r="0.8000" /> 
</g>
<g style="fill:#000000; fill-opacity:1.0000; stroke:none;">
<circle cx="128.2650" cy="79.4400" r="0.8000" /> 
</g>
<g style="fill:#000000; fill-opacity:1.0000; stroke:none;">
<circle cx="128.2650" cy="81.9800" r="0.8000" /> 
</g>
<g style="fill:#000000; fill-opacity:1.0000; stroke:none;">
<circle cx="128.2650" cy="84.5200" r="0.8000" /> 
</g>
<g style="fill:#000000; fill-opacity:1.0000; stroke:none;">
<circle cx="128.2650" cy="87.0600" r="0.8000" /> 
</g>
<g style="fill:#000000; fill-opacity:1.0000; stroke:none;">
<circle cx="135.8850" cy="87.0600" r="0.8000" /> 
</g>
<g style="fill:#000000; fill-opacity:1.0000; stroke:none;">
<circle cx="135.8850" cy="84.5200" r="0.8000" /> 
</g>
<g style="fill:#000000; fill-opacity:1.0000; stroke:none;">
<circle cx="135.8850" cy="81.9800" r="0.8000" /> 
</g>
<g style="fill:#000000; fill-opacity:1.0000; stroke:none;">
<circle cx="135.8850" cy="79.4400" r="0.8000" /> 
</g>
<g style="fill:#000000; fill-opacity:1.0000; stroke:none;">
<circle cx="135.8850" cy="76.9000" r="0.8000" /> 
</g>
<g style="fill:#000000; fill-opacity:1.0000; stroke:none;">
<circle cx="135.8850" cy="74.3600" r="0.8000" /> 
</g>
<g style="fill:#000000; fill-opacity:1.0000; stroke:none;">
<circle cx="135.8850" cy="71.8200" r="0.8000" /> 
<path style="fill:#000000; fill-opacity:1.0000; stroke:none;fill-rule:evenodd;"
d="M 134.2750,82.1500
134.3707,82.1690
134.4518,82.2232
134.5060,82.3043
134.5250,82.4000
134.5250,82.9000
134.5060,82.9957
134.4518,83.0768
134.3707,83.1310
134.2750,83.1500
133.3250,83.1500
133.2293,83.1310
133.1482,83.0768
133.0940,82.9957
133.0750,82.9000
133.0750,82.4000
133.0940,82.3043
133.1482,82.2232
133.2293,82.1690
133.3250,82.1500
Z" /> 
<path style="fill:#000000; fill-opacity:1.0000; stroke:none;fill-rule:evenodd;"
d="M 134.2750,84.0500
134.3707,84.0690
134.4518,84.1232
134.5060,84.2043
134.5250,84.3000
134.5250,84.8000
134.5060,84.8957
134.4518,84.9768
134.3707,85.0310
134.2750,85.0500
133.3250,85.0500
133.2293,85.0310
133.1482,84.9768
133.0940,84.8957
133.0750,84.8000
133.0750,84.3000
133.0940,84.2043
133.1482,84.1232
133.2293,84.0690
133.3250,84.0500
Z" /> 
<path style="fill:#000000; fill-opacity:1.0000; stroke:none;fill-rule:evenodd;"
d="M 133.1500,73.8950
133.1883,73.9026
133.2207,73.9243
133.2424,73.9567
133.2500,73.9950
133.2500,75.3700
133.2424,75.4083
133.2207,75.4407
133.1883,75.4624
133.1500,75.4700
132.9500,75.4700
132.9117,75.4624
132.8793,75.4407
132.8576,75.4083
132.8500,75.3700
132.8500,73.9950
132.8576,73.9567
132.8793,73.9243
132.9117,73.9026
132.9500,73.8950
Z" /> 
<path style="fill:#000000; fill-opacity:1.0000; stroke:none;fill-rule:evenodd;"
d="M 132.5000,73.8950
132.5383,73.9026
132.5707,73.9243
132.5924,73.9567
132.6000,73.9950
132.6000,75.3700
132.5924,75.4083
132.5707,75.4407
132.5383,75.4624
132.5000,75.4700
132.3000,75.4700
132.2617,75.4624
132.2293,75.4407
132.2076,75.4083
132.2000,75.3700
132.2000,73.9950
132.2076,73.9567
132.2293,73.9243
132.2617,73.9026
132.3000,73.8950
Z" /> 
<path style="fill:#000000; fill-opacity:1.0000; stroke:none;fill-rule:evenodd;"
d="M 131.8500,73.8950
131.8883,73.9026
131.9207,73.9243
131.9424,73.9567
131.9500,73.9950
131.9500,75.3700
131.9424,75.4083
131.9207,75.4407
131.8883,75.4624
131.8500,75.4700
131.6500,75.4700
131.6117,75.4624
131.5793,75.4407
131.5576,75.4083
131.5500,75.3700
131.5500,73.9950
131.5576,73.9567
131.5793,73.9243
131.6117,73.9026
131.6500,73.8950
Z" /> 
<path style="fill:#000000; fill-opacity:1.0000; stroke:none;fill-rule:evenodd;"
d="M 131.2000,73.8950
131.2383,73.9026
131.2707,73.9243
131.2924,73.9567
131.3000,73.9950
131.3000,75.3700
131.2924,75.4083
131.2707,75.4407
131.2383,75.4624
131.2000,75.4700
131.0000,75.4700
130.9617,75.4624
130.9293,75.4407
130.9076,75.4083
130.9000,75.3700
130.9000,73.9950
130.9076,73.9567
130.9293,73.9243
130.9617,73.9026
131.0000,73.8950
Z" /> 
<path style="fill:#000000; fill-opacity:1.0000; stroke:none;fill-rule:evenodd;"
d="M 131.2000,78.1200
131.2383,78.1276
131.2707,78.1493
131.2924,78.1817
131.3000,78.2200
131.3000,79.5950
131.2924,79.6333
131.2707,79.6657
131.2383,79.6874
131.2000,79.6950
131.0000,79.6950
130.9617,79.6874
130.9293,79.6657
130.9076,79.6333
130.9000,79.5950
130.9000,78.2200
130.9076,78.1817
130.9293,78.1493
130.9617,78.1276
131.0000,78.1200
Z" /> 
<path style="fill:#000000; fill-opacity:1.0000; stroke:none;fill-rule:evenodd;"
d="M 131.8500,78.1200
131.8883,78.1276
131.9207,78.1493
131.9424,78.1817
131.9500,78.2200
131.9500,79.5950
131.9424,79.6333
131.9207,79.6657
131.8883,79.6874
131.8500,79.6950
131.6500,79.6950
131.6117,79.6874
131.5793,79.6657
131.5576,79.6333
131.5500,79.5950
131.5500,78.2200
131.5576,78.1817
131.5793,78.1493
131.6117,78.1276
131.6500,78.1200
Z" /> 
<path style="fill:#000000; fill-opacity:1.0000; stroke:none;fill-rule:evenodd;"
d="M 132.5000,78.1200
132.5383,78.1276
132.5707,78.1493
132.5924,78.1817
132.6000,78.2200
132.6000,79.5950
132.5924,79.6333
132.5707,79.6657
132.5383,79.6874
132.5000,79.6950
132.3000,79.6950
132.2617,79.6874
132.2293,79.6657
132.2076,79.6333
132.2000,79.5950
132.2000,78.2200
132.2076,78.1817
132.2293,78.1493
132.2617,78.1276
132.3000,78.1200
Z" /> 
<path style="fill:#000000; fill-opacity:1.0000; stroke:none;fill-rule:evenodd;"
d="M 133.1500,78.1200
133.1883,78.1276
133.2207,78.1493
133.2424,78.1817
133.2500,78.2200
133.2500,79.5950
133.2424,79.6333
133.2207,79.6657
133.1883,79.6874
133.1500,79.6950
132.9500,79.6950
132.9117,79.6874
132.8793,79.6657
132.8576,79.6333
132.8500,79.5950
132.8500,78.2200
132.8576,78.1817
132.8793,78.1493
132.9117,78.1276
132.9500,78.1200
Z" /> 
<path style="fill:#000000; fill-opacity:1.0000; stroke:none;fill-rule:evenodd;"
d="M 131.1750,76.0450
132.9750,76.0450
132.9750,77.5450
131.1750,77.5450
Z" /> 
<path style="fill:#000000; fill-opacity:1.0000; stroke:none;fill-rule:evenodd;"
d="M 129.6500,74.7000
129.5639,74.6829
129.4909,74.6341
129.4421,74.5611
129.4250,74.4750
129.4250,74.0250
129.4421,73.9389
129.4909,73.8659
129.5639,73.8171
129.6500,73.8000
130.1500,73.8000
130.2361,73.8171
130.3091,73.8659
130.3579,73.9389
130.3750,74.0250
130.3750,74.4750
130.3579,74.5611
130.3091,74.6341
130.2361,74.6829
130.1500,74.7000
Z" /> 
<path style="fill:#000000; fill-opacity:1.0000; stroke:none;fill-rule:evenodd;"
d="M 129.6500,73.1500
129.5639,73.1329
129.4909,73.0841
129.4421,73.0111
129.4250,72.9250
129.4250,72.4750
129.4421,72.3889
129.4909,72.3159
129.5639,72.2671
129.6500,72.2500
130.1500,72.2500
130.2361,72.2671
130.3091,72.3159
130.3579,72.3889
130.3750,72.4750
130.3750,72.9250
130.3579,73.0111
130.3091,73.0841
130.2361,73.1329
130.1500,73.1500
Z" /> 
</g>
<g style="fill:#000000; fill-opacity:1.0000; stroke:none;">
<circle cx="129.9000" cy="76.0000" r="0.3000" /> 
</g>
<g style="fill:#000000; fill-opacity:1.0000; stroke:none;">
<circle cx="129.9000" cy="75.2000" r="0.3000" /> 
</g>
<g style="fill:#000000; fill-opacity:1.0000; stroke:none;">
<circle cx="131.5000" cy="76.4000" r="0.3000" /> 
</g>
<g style="fill:#000000; fill-opacity:1.0000; stroke:none;">
<circle cx="134.3707" cy="85.9600" r="0.4000" /> 
</g>
<g style="fill:#000000; fill-opacity:1.0000; stroke:none;">
<circle cx="137.5000" cy="80.1261" r="0.4000" /> 
</g>
<g style="fill:#000000; fill-opacity:1.0000; stroke:none;">
<circle cx="129.2400" cy="85.9600" r="0.4000" /> 
</g>
<g style="fill:#000000; fill-opacity:1.0000; stroke:none;">
<circle cx="129.8304" cy="69.9000" r="0.4000" /> 
</g>
<g style="fill:#000000; fill-opacity:1.0000; stroke:none;">
<circle cx="132.2000" cy="84.0000" r="0.4000" /> 
</g>
<g style="fill:#000000; fill-opacity:1.0000; stroke:none;">
<circle cx="127.9783" cy="88.5000" r="0.4000" /> 
</g>
<g style="fill:#000000; fill-opacity:1.0000; stroke:none;">
<circle cx="126.7000" cy="71.8826" r="0.4000" /> 
</g>
<g style="fill:#000000; fill-opacity:1.0000; stroke:none;">
<circle cx="137.5000" cy="72.4565" r="0.4000" /> 
</g>
<g style="fill:#000000; fill-opacity:1.0000; stroke:none;">
<circle cx="126.7000" cy="84.6652" r="0.4000" /> 
</g>
<g style="fill:#000000; fill-opacity:1.0000; stroke:none;">
<circle cx="129.2400" cy="83.3947" r="0.4000" /> 
</g>
<g style="fill:#000000; fill-opacity:1.0000; stroke:none;">
<circle cx="131.1000" cy="70.9000" r="0.4000" /> 
</g>
<g style="fill:#000000; fill-opacity:1.0000; stroke:none;">
<circle cx="137.5000" cy="85.2391" r="0.4000" /> 
</g>
<g style="fill:#000000; fill-opacity:1.0000; stroke:none;">
<circle cx="127.2739" cy="69.9000" r="0.4000" /> 
</g>
<g style="fill:#000000; fill-opacity:1.0000; stroke:none;">
<circle cx="126.7000" cy="82.1087" r="0.4000" /> 
</g>
<g style="fill:#000000; fill-opacity:1.0000; stroke:none;">
<circle cx="137.5000" cy="82.6826" r="0.4000" /> 
</g>
<g style="fill:#000000; fill-opacity:1.0000; stroke:none;">
<circle cx="137.5000" cy="75.0130" r="0.4000" /> 
</g>
<g style="fill:#000000; fill-opacity:1.0000; stroke:none;">
<circle cx="129.2400" cy="80.8293" r="0.4000" /> 
</g>
<g style="fill:#000000; fill-opacity:1.0000; stroke:none;">
<circle cx="132.2000" cy="82.2000" r="0.4000" /> 
</g>
<g style="fill:#000000; fill-opacity:1.0000; stroke:none;">
<circle cx="130.5348" cy="88.5000" r="0.4000" /> 
</g>
<g style="fill:#000000; fill-opacity:1.0000; stroke:none;">
<circle cx="137.5000" cy="87.7956" r="0.4000" /> 
</g>
<g style="fill:#000000; fill-opacity:1.0000; stroke:none;">
<circle cx="137.5000" cy="77.5696" r="0.4000" /> 
</g>
<g style="fill:#000000; fill-opacity:1.0000; stroke:none;">
<circle cx="126.7000" cy="74.4391" r="0.4000" /> 
</g>
<g style="fill:#000000; fill-opacity:1.0000; stroke:none;">
<circle cx="137.5000" cy="69.9000" r="0.4000" /> 
</g>
<g style="fill:#000000; fill-opacity:1.0000; stroke:none;">
<circle cx="132.5000" cy="77.2000" r="0.3000" /> 
</g>
<g style="fill:#000000; fill-opacity:1.0000; stroke:none;">
<circle cx="131.5000" cy="77.2000" r="0.3000" /> 
</g>
<g style="fill:#000000; fill-opacity:1.0000; stroke:none;">
<circle cx="134.9435" cy="69.9000" r="0.4000" /> 
</g>
<g style="fill:#000000; fill-opacity:1.0000; stroke:none;">
<circle cx="126.7000" cy="87.2217" r="0.4000" /> 
</g>
<g style="fill:#000000; fill-opacity:1.0000; stroke:none;">
<circle cx="126.7000" cy="76.9957" r="0.4000" /> 
</g>
<g style="fill:#000000; fill-opacity:1.0000; stroke:none;">
<circle cx="132.7000" cy="85.6000" r="0.4000" /> 
</g>
<g style="fill:#000000; fill-opacity:1.0000; stroke:none;">
<circle cx="126.7000" cy="79.5522" r="0.4000" /> 
</g>
<g style="fill:#000000; fill-opacity:1.0000; stroke:none;">
<circle cx="135.6478" cy="88.5000" r="0.4000" /> 
</g>
<g style="fill:#000000; fill-opacity:1.0000; stroke:none;">
<circle cx="133.7000" cy="72.7000" r="0.4000" /> 
</g>
<g style="fill:#000000; fill-opacity:1.0000; stroke:none;">
<circle cx="133.0913" cy="88.5000" r="0.4000" /> 
</g>
<g style="fill:none; 
stroke:#000000; stroke-width:0.3000; stroke-opacity:1; 
stroke-linecap:round; stroke-linejoin:round;">
<path d="M131.7500 79.7500
L131.2000 80.3000
" />
<path d="M131.2000 85.9000
L132.3600 87.0600
" />
<path d="M131.2000 80.3000
L131.2000 85.9000
" />
<path d="M131.7500 78.9075
L131.7500 79.7500
" />
<path d="M132.3600 87.0600
L135.8850 87.0600
" />
<path d="M132.9800 71.8200
L135.8850 71.8200
" />
<path d="M132.4000 74.6825
L132.4000 72.4000
" />
<path d="M132.4000 72.4000
L132.9800 71.8200
" />
<path d="M131.7500 72.3500
L131.7500 74.6825
" />
<path d="M128.2650 71.8200
L131.2200 71.8200
" />
<path d="M131.2200 71.8200
L131.7500 72.3500
" />
<path style="fill:#000000; fill-opacity:1.0000; stroke:none;fill-rule:evenodd;"
d="M 131.2725,73.7197
131.3182,73.7725
131.3282,73.8416
131.3168,73.8785
131.3094,73.8936
131.3094,73.8936
131.2995,73.9617
131.2995,73.9617
131.2995,75.4033
131.3075,75.4581
131.2977,75.5273
131.2520,75.5802
131.1850,75.6000
131.0000,75.6000
131.0000,75.8184
130.9803,75.8854
130.9791,75.8873
130.9390,75.9473
130.9390,75.9473
130.9245,76.0203
130.9245,76.2760
130.9048,76.3430
130.8520,76.3888
130.8005,76.4000
129.5240,76.4000
129.4570,76.3803
129.4112,76.3275
129.4000,76.2760
129.4000,73.8240
129.4197,73.7570
129.4725,73.7112
129.5240,73.7000
131.2054,73.7000
Z" /> 
<path style="fill:#000000; fill-opacity:1.0000; stroke:none;fill-rule:evenodd;"
d="M 133.2007,78.0197
133.2368,78.0552
133.3168,78.1751
134.8000,80.4000
135.5706,80.4000
135.5948,80.4024
135.7865,80.4405
135.7865,80.4405
135.9835,80.4405
136.1752,80.4024
136.1994,80.4000
136.5760,80.4000
136.6430,80.4197
136.6888,80.4725
136.7000,80.5240
136.7000,83.1760
136.6803,83.2430
136.6275,83.2888
136.5760,83.3000
133.1240,83.3000
133.0570,83.2803
133.0112,83.2275
133.0000,83.1760
133.0000,82.0435
133.0197,81.9765
133.0272,81.9660
133.4000,81.5000
133.4000,80.1000
132.2240,80.1000
132.2153,80.0974
132.2064,80.0987
132.1823,80.0878
132.1570,80.0803
132.1510,80.0735
132.1428,80.0697
132.1285,80.0475
132.1112,80.0275
132.1089,80.0170
132.1050,80.0109
132.1000,79.9760
132.1000,79.8081
132.1005,79.8004
132.1005,79.7978
132.1008,79.7966
132.1011,79.7919
132.1016,79.7881
132.1025,79.7882
132.1111,79.7477
132.1181,79.7318
132.1476,79.6650
132.1505,79.6399
132.1505,78.1751
132.1499,78.1701
132.1465,78.1407
132.1497,78.1404
132.1508,78.0867
132.1897,78.0287
132.2538,78.0009
132.2690,78.0000
133.1336,78.0000
Z" /> 
<path style="fill:#000000; fill-opacity:1.0000; stroke:none;fill-rule:evenodd;"
d="M 138.2675,69.1102
138.3133,69.1630
138.3245,69.2145
138.3245,89.1655
138.3048,89.2325
138.2520,89.2783
138.2005,89.2895
125.9895,89.2895
125.9225,89.2698
125.8767,89.2170
125.8655,89.1655
125.8655,80.2473
130.7995,80.2473
130.7995,85.9527
130.8268,86.0546
130.8532,86.1003
130.8795,86.1459
130.8795,86.1459
130.8795,86.1459
132.0352,87.3016
132.0352,87.3016
132.0395,87.3059
132.0395,87.3059
132.1141,87.3805
132.2054,87.4332
132.3073,87.4605
132.3073,87.4605
132.4203,87.4605
132.4203,87.4605
134.8310,87.4605
134.8980,87.4802
134.9438,87.5330
134.9455,87.5370
134.9541,87.5576
134.9541,87.5576
134.9541,87.5576
135.0690,87.7297
135.2153,87.8760
135.2153,87.8760
135.3874,87.9909
135.5786,88.0701
135.7815,88.1105
135.7815,88.1105
135.7815,88.1105
135.9885,88.1105
135.9885,88.1105
136.1914,88.0701
136.3826,87.9909
136.5547,87.8760
136.7010,87.7297
136.8159,87.5576
136.8951,87.3664
136.9355,87.1635
136.9355,86.9565
136.8951,86.7536
136.8159,86.5624
136.7010,86.3903
136.7010,86.3903
136.7010,86.3903
136.5547,86.2440
136.4078,86.1459
136.3826,86.1291
136.1914,86.0499
136.1914,86.0499
135.9885,86.0095
135.9885,86.0095
135.7815,86.0095
135.7815,86.0095
135.5786,86.0499
135.5786,86.0499
135.3874,86.1291
135.2153,86.2440
135.0690,86.3903
134.9541,86.5624
134.9541,86.5624
134.9455,86.5830
134.9017,86.6374
134.8354,86.6594
134.8310,86.6595
132.5773,86.6595
132.5102,86.6398
132.4896,86.6232
131.6368,85.7704
131.6033,85.7091
131.6005,85.6827
131.6005,80.5173
131.6091,80.4878
131.6157,80.4578
131.6194,80.4528
131.6202,80.4502
131.6368,80.4296
131.8038,80.2626
131.8651,80.2291
131.9348,80.2341
131.9639,80.2497
131.9648,80.2503
131.9785,80.2617
131.9966,80.2793
131.9966,80.2793
131.9966,80.2793
132.0190,80.2910
132.0269,80.2951
132.0367,80.3021
132.0449,80.3059
132.0454,80.3048
132.0476,80.3059
132.0850,80.3255
132.0850,80.3255
132.0868,80.3262
132.0976,80.3302
132.0976,80.3302
132.0976,80.3302
132.0977,80.3301
132.1002,80.3311
132.1002,80.3311
132.1432,80.3463
132.1646,80.3474
132.1756,80.3485
132.2240,80.3555
133.0205,80.3555
133.0875,80.3752
133.1333,80.4280
133.1445,80.4795
133.1445,81.3669
133.1248,81.4339
133.1173,81.4443
132.8276,81.8064
132.8197,81.8170
132.8122,81.8274
132.7745,81.9045
132.7549,81.9715
132.7548,81.9715
132.7445,82.0435
132.7445,83.1760
132.7503,83.2303
132.7615,83.2818
132.7615,83.2818
132.7688,83.3082
132.7688,83.3082
132.8181,83.3948
132.8181,83.3948
132.8181,83.3948
132.8446,83.4254
132.8639,83.4476
132.8639,83.4476
132.8639,83.4476
132.8966,83.4793
132.9850,83.5255
132.9850,83.5255
132.9850,83.5255
133.0292,83.5385
133.0520,83.5451
133.0520,83.5451
133.0520,83.5452
133.0637,83.5468
133.1240,83.5555
133.1240,83.5555
136.5760,83.5555
136.6303,83.5497
136.6818,83.5385
136.7082,83.5312
136.7371,83.5148
136.7948,83.4819
136.7948,83.4819
136.7948,83.4819
136.8476,83.4361
136.8793,83.4034
136.9255,83.3150
136.9275,83.3082
136.9352,83.2818
136.9451,83.2480
136.9555,83.1760
136.9555,80.5240
136.9497,80.4697
136.9385,80.4182
136.9312,80.3918
136.9218,80.3752
136.8819,80.3052
136.8819,80.3052
136.8819,80.3052
136.8442,80.2617
136.8361,80.2524
136.8034,80.2207
136.7150,80.1745
136.7150,80.1745
136.6480,80.1549
136.6480,80.1548
136.5760,80.1445
136.5760,80.1445
136.1994,80.1445
136.1817,80.1454
136.1743,80.1457
136.1501,80.1481
136.1501,80.1481
136.1253,80.1518
136.1253,80.1518
135.9704,80.1826
135.9462,80.1850
135.8238,80.1850
135.7996,80.1826
135.6447,80.1518
135.6447,80.1518
135.6447,80.1518
135.6447,80.1518
135.6447,80.1518
135.6392,80.1510
135.6199,80.1481
135.6199,80.1481
135.6199,80.1481
135.5957,80.1457
135.5907,80.1455
135.5706,80.1445
135.5706,80.1445
135.0031,80.1445
134.9361,80.1248
134.8999,80.0893
133.6316,78.1867
133.4494,77.9135
133.4173,77.8747
133.4160,77.8730
133.4160,77.8730
133.4159,77.8730
133.3798,77.8375
133.3798,77.8375
133.3610,77.8207
133.3610,77.8207
133.2727,77.7745
133.2727,77.7745
133.2056,77.7549
133.2056,77.7548
133.1336,77.7445
133.1336,77.7445
132.2690,77.7445
132.2690,77.7445
132.2533,77.7450
132.2381,77.7459
132.1523,77.7665
132.1523,77.7665
132.0882,77.7942
132.0882,77.7942
132.0482,77.8160
132.0242,77.8398
131.9628,77.8732
131.9188,77.8747
131.8833,77.8695
131.6167,77.8695
131.6167,77.8695
131.5486,77.8794
131.4435,77.9308
131.3608,78.0135
131.3094,78.1186
131.2995,78.1867
131.2995,79.5827
131.2798,79.6498
131.2632,79.6704
130.8795,80.0541
130.8795,80.0541
130.8268,80.1454
130.8268,80.1454
130.8244,80.1544
130.7995,80.2473
125.8655,80.2473
125.8655,71.2221
127.2145,71.2221
127.2145,72.4179
127.2145,72.4179
127.2209,72.4775
127.2712,72.6123
127.2712,72.6123
127.3575,72.7275
127.3575,72.7275
127.4727,72.8138
127.4727,72.8138
127.6075,72.8641
127.6075,72.8641
127.6144,72.8648
127.6671,72.8705
128.8629,72.8705
128.9225,72.8641
129.0573,72.8138
129.1725,72.7275
129.2588,72.6123
129.3091,72.4775
129.3155,72.4179
129.3155,72.3445
129.3352,72.2775
129.3880,72.2317
129.4395,72.2205
131.0027,72.2205
131.0698,72.2402
131.0904,72.2568
131.3132,72.4796
131.3467,72.5409
131.3495,72.5673
131.3495,73.3221
131.3298,73.3891
131.2770,73.4349
131.2099,73.4446
131.2098,73.4448
131.2087,73.4447
131.2079,73.4448
131.2054,73.4445
131.2054,73.4445
129.5240,73.4445
129.5240,73.4445
129.4697,73.4503
129.4182,73.4615
129.4182,73.4615
129.3918,73.4688
129.3918,73.4688
129.3052,73.5181
129.3052,73.5181
129.2524,73.5639
129.2207,73.5966
129.1745,73.6850
129.1745,73.6850
129.1549,73.7520
129.1548,73.7520
129.1445,73.8240
129.1445,75.9945
129.1248,76.0615
129.0720,76.1073
129.0029,76.1172
128.9393,76.0882
128.9358,76.0850
128.9347,76.0840
128.8007,75.9945
128.7626,75.9691
128.7345,75.9574
128.5714,75.8899
128.5714,75.8899
128.3685,75.8495
128.3685,75.8495
128.1615,75.8495
128.1615,75.8495
127.9586,75.8899
127.9586,75.8899
127.7674,75.9691
127.5953,76.0840
127.4490,76.2303
127.3341,76.4024
127.2549,76.5936
127.2549,76.5936
127.2145,76.7965
127.2145,77.0035
127.2549,77.2064
127.2549,77.2064
127.3341,77.3976
127.4490,77.5697
127.5953,77.7160
127.5953,77.7160
127.7674,77.8309
127.9586,77.9101
128.1615,77.9505
128.1615,77.9505
128.1615,77.9505
128.3685,77.9505
128.3685,77.9505
128.5714,77.9101
128.7626,77.8309
128.9347,77.7160
129.0810,77.5697
129.1959,77.3976
129.2751,77.2064
129.3155,77.0035
129.3155,76.7965
129.3147,76.7924
129.3209,76.7228
129.3638,76.6676
129.4296,76.6443
129.4539,76.6454
129.4670,76.6473
129.5240,76.6555
129.5240,76.6555
130.8005,76.6555
130.8548,76.6497
130.9063,76.6385
130.9327,76.6312
130.9616,76.6148
131.0193,76.5819
131.0193,76.5819
131.0193,76.5819
131.0721,76.5361
131.1038,76.5034
131.1500,76.4150
131.1696,76.3480
131.1800,76.2760
131.1800,76.0828
131.1813,76.0759
131.1805,76.0717
131.1847,76.0580
131.1886,76.0374
131.1923,76.0281
131.1928,76.0273
131.1940,76.0255
131.2255,75.9574
131.2411,75.9042
131.2431,75.8990
131.2613,75.8756
131.2773,75.8507
131.2831,75.8475
131.2860,75.8438
131.2969,75.8400
131.3219,75.8263
131.3218,75.8261
131.3231,75.8257
131.3234,75.8255
131.3244,75.8252
131.3245,75.8252
131.3245,75.8252
131.3668,75.8084
131.4454,75.7471
131.4454,75.7471
131.4488,75.7440
131.5109,75.7120
131.5521,75.7111
131.6167,75.7205
131.6167,75.7205
131.8833,75.7205
131.9060,75.7172
131.9514,75.7106
132.0205,75.6768
132.0894,75.6650
132.1295,75.6768
132.1986,75.7106
132.2327,75.7155
132.2667,75.7205
132.2667,75.7205
132.5333,75.7205
132.5560,75.7172
132.6014,75.7106
132.7065,75.6592
132.7892,75.5765
132.8406,75.4714
132.8505,75.4033
132.8505,73.9617
132.8406,73.8936
132.8269,73.8656
132.8131,73.8374
132.8005,73.7829
132.8005,72.6173
132.8202,72.5502
132.8368,72.5296
133.1096,72.2568
133.1709,72.2233
133.1973,72.2205
134.8310,72.2205
134.8980,72.2402
134.9438,72.2930
134.9455,72.2970
134.9541,72.3176
134.9541,72.3176
134.9541,72.3176
135.0690,72.4897
135.2153,72.6360
135.2153,72.6360
135.3874,72.7509
135.5786,72.8301
135.7493,72.8641
135.7815,72.8705
135.7815,72.8705
135.7815,72.8705
135.9885,72.8705
135.9885,72.8705
136.1914,72.8301
136.3826,72.7509
136.5547,72.6360
136.7010,72.4897
136.8159,72.3176
136.8951,72.1264
136.9355,71.9235
136.9355,71.7165
136.8951,71.5136
136.8159,71.3224
136.7010,71.1503
136.7010,71.1503
136.7010,71.1503
136.5547,71.0040
136.4176,70.9125
136.3826,70.8891
136.1914,70.8099
136.1914,70.8099
135.9885,70.7695
135.9885,70.7695
135.7815,70.7695
135.7815,70.7695
135.5786,70.8099
135.5786,70.8099
135.3874,70.8891
135.2153,71.0040
135.0690,71.1503
134.9541,71.3224
134.9541,71.3224
134.9455,71.3430
134.9017,71.3974
134.8354,71.4194
134.8310,71.4195
132.9273,71.4195
132.8254,71.4468
132.7341,71.4995
132.7341,71.4995
132.1877,72.0459
132.1264,72.0794
132.0567,72.0744
132.0123,72.0459
131.4659,71.4995
131.4659,71.4995
131.4202,71.4732
131.3746,71.4468
131.3237,71.4331
131.2727,71.4195
131.2727,71.4195
129.4395,71.4195
129.3725,71.3998
129.3267,71.3470
129.3155,71.2955
129.3155,71.2221
129.3155,71.2221
129.3155,71.2221
129.3091,71.1625
129.3046,71.1503
129.2588,71.0277
129.2588,71.0277
129.1725,70.9125
129.1725,70.9125
129.0573,70.8262
129.0573,70.8262
128.9225,70.7759
128.9225,70.7759
128.8629,70.7695
128.8629,70.7695
128.8629,70.7695
128.8629,70.7695
127.6671,70.7695
127.6671,70.7695
127.6075,70.7759
127.4727,70.8262
127.4727,70.8262
127.3575,70.9125
127.3575,70.9125
127.2712,71.0277
127.2712,71.0277
127.2209,71.1625
127.2145,71.2221
127.2145,71.2221
127.2145,71.2221
125.8655,71.2221
125.8655,69.2145
125.8852,69.1475
125.9380,69.1017
125.9895,69.0905
138.2005,69.0905
Z" /> 
</g> 
</svg>
