<?xml version="1.0" standalone="no"?>
 <!DOCTYPE svg PUBLIC "-//W3C//DTD SVG 1.1//EN" 
 "http://www.w3.org/Graphics/SVG/1.1/DTD/svg11.dtd"> 
<svg
  xmlns:svg="http://www.w3.org/2000/svg"
  xmlns="http://www.w3.org/2000/svg"
  xmlns:xlink="http://www.w3.org/1999/xlink"
  version="1.1"
  width="297.0022mm" height="210.0072mm" viewBox="0.0000 0.0000 297.0022 210.0072">
<title>SVG Image created as EL2039-B_Mask.svg date 2026/03/18 19:01:43 </title>
  <desc>Image generated by PCBNEW </desc>
<g style="fill:#000000; fill-opacity:1.0000;stroke:#000000; stroke-opacity:1.0000;
stroke-linecap:round; stroke-linejoin:round;"
 transform="translate(0 0) scale(1 1)">
<path style="fill:#000000; fill-opacity:1.0000; stroke:none;fill-rule:evenodd;"
d="M 127.4650,71.2700
127.4840,71.1743
127.5382,71.0932
127.6193,71.0390
127.7150,71.0200
128.8150,71.0200
128.9107,71.0390
128.9918,71.0932
129.0460,71.1743
129.0650,71.2700
129.0650,72.3700
129.0460,72.4657
128.9918,72.5468
128.9107,72.6010
128.8150,72.6200
127.7150,72.6200
127.6193,72.6010
127.5382,72.5468
127.4840,72.4657
127.4650,72.3700
Z" /> 
</g>
<g style="fill:#000000; fill-opacity:1.0000; stroke:none;">
<circle cx="128.2650" cy="74.3600" r="0.8000" /> 
</g>
<g style="fill:#000000; fill-opacity:1.0000; stroke:none;">
<circle cx="128.2650" cy="76.9000" r="0.8000" /> 
</g>
<g style="fill:#000000; fill-opacity:1.0000; stroke:none;">
<circle cx="128.2650" cy="79.4400" r="0.8000" /> 
</g>
<g style="fill:#000000; fill-opacity:1.0000; stroke:none;">
<circle cx="128.2650" cy="81.9800" r="0.8000" /> 
</g>
<g style="fill:#000000; fill-opacity:1.0000; stroke:none;">
<circle cx="128.2650" cy="84.5200" r="0.8000" /> 
</g>
<g style="fill:#000000; fill-opacity:1.0000; stroke:none;">
<circle cx="128.2650" cy="87.0600" r="0.8000" /> 
</g>
<g style="fill:#000000; fill-opacity:1.0000; stroke:none;">
<circle cx="135.8850" cy="87.0600" r="0.8000" /> 
</g>
<g style="fill:#000000; fill-opacity:1.0000; stroke:none;">
<circle cx="135.8850" cy="84.5200" r="0.8000" /> 
</g>
<g style="fill:#000000; fill-opacity:1.0000; stroke:none;">
<circle cx="135.8850" cy="81.9800" r="0.8000" /> 
</g>
<g style="fill:#000000; fill-opacity:1.0000; stroke:none;">
<circle cx="135.8850" cy="79.4400" r="0.8000" /> 
</g>
<g style="fill:#000000; fill-opacity:1.0000; stroke:none;">
<circle cx="135.8850" cy="76.9000" r="0.8000" /> 
</g>
<g style="fill:#000000; fill-opacity:1.0000; stroke:none;">
<circle cx="135.8850" cy="74.3600" r="0.8000" /> 
</g>
<g style="fill:#000000; fill-opacity:1.0000; stroke:none;">
<circle cx="135.8850" cy="71.8200" r="0.8000" /> 
<path style="fill:#000000; fill-opacity:1.0000; stroke:none;fill-rule:evenodd;"
d="M 134.0000,78.6750
133.9829,78.7611
133.9341,78.8341
133.8611,78.8829
133.7750,78.9000
133.3250,78.9000
133.2389,78.8829
133.1659,78.8341
133.1171,78.7611
133.1000,78.6750
133.1000,77.9250
133.1171,77.8389
133.1659,77.7659
133.2389,77.7171
133.3250,77.7000
133.7750,77.7000
133.8611,77.7171
133.9341,77.7659
133.9829,77.8389
134.0000,77.9250
Z" /> 
<path style="fill:#000000; fill-opacity:1.0000; stroke:none;fill-rule:evenodd;"
d="M 130.7000,78.6750
130.6829,78.7611
130.6341,78.8341
130.5611,78.8829
130.4750,78.9000
130.0250,78.9000
129.9389,78.8829
129.8659,78.8341
129.8171,78.7611
129.8000,78.6750
129.8000,77.9250
129.8171,77.8389
129.8659,77.7659
129.9389,77.7171
130.0250,77.7000
130.4750,77.7000
130.5611,77.7171
130.6341,77.7659
130.6829,77.8389
130.7000,77.9250
Z" /> 
<path style="fill:#000000; fill-opacity:1.0000; stroke:none;fill-rule:evenodd;"
d="M 134.0450,69.1950
134.1407,69.2140
134.2218,69.2682
134.2760,69.3493
134.2950,69.4450
134.2950,71.0150
134.2760,71.1107
134.2218,71.1918
134.1407,71.2460
134.0450,71.2650
132.1550,71.2650
132.0593,71.2460
131.9782,71.1918
131.9240,71.1107
131.9050,71.0150
131.9050,69.4450
131.9240,69.3493
131.9782,69.2682
132.0593,69.2140
132.1550,69.1950
Z" /> 
<path style="fill:#000000; fill-opacity:1.0000; stroke:none;fill-rule:evenodd;"
d="M 134.0450,74.1350
134.1407,74.1540
134.2218,74.2082
134.2760,74.2893
134.2950,74.3850
134.2950,75.9550
134.2760,76.0507
134.2218,76.1318
134.1407,76.1860
134.0450,76.2050
132.1550,76.2050
132.0593,76.1860
131.9782,76.1318
131.9240,76.0507
131.9050,75.9550
131.9050,74.3850
131.9240,74.2893
131.9782,74.2082
132.0593,74.1540
132.1550,74.1350
Z" /> 
<path style="fill:#000000; fill-opacity:1.0000; stroke:none;fill-rule:evenodd;"
d="M 129.6250,74.5500
129.5293,74.5310
129.4482,74.4768
129.3940,74.3957
129.3750,74.3000
129.3750,73.8000
129.3940,73.7043
129.4482,73.6232
129.5293,73.5690
129.6250,73.5500
130.5750,73.5500
130.6707,73.5690
130.7518,73.6232
130.8060,73.7043
130.8250,73.8000
130.8250,74.3000
130.8060,74.3957
130.7518,74.4768
130.6707,74.5310
130.5750,74.5500
Z" /> 
<path style="fill:#000000; fill-opacity:1.0000; stroke:none;fill-rule:evenodd;"
d="M 129.6250,72.6500
129.5293,72.6310
129.4482,72.5768
129.3940,72.4957
129.3750,72.4000
129.3750,71.9000
129.3940,71.8043
129.4482,71.7232
129.5293,71.6690
129.6250,71.6500
130.5750,71.6500
130.6707,71.6690
130.7518,71.7232
130.8060,71.8043
130.8250,71.9000
130.8250,72.4000
130.8060,72.4957
130.7518,72.5768
130.6707,72.6310
130.5750,72.6500
Z" /> 
</g> 
</svg>
