<?xml version="1.0" standalone="no"?>
 <!DOCTYPE svg PUBLIC "-//W3C//DTD SVG 1.1//EN" 
 "http://www.w3.org/Graphics/SVG/1.1/DTD/svg11.dtd"> 
<svg
  xmlns:svg="http://www.w3.org/2000/svg"
  xmlns="http://www.w3.org/2000/svg"
  xmlns:xlink="http://www.w3.org/1999/xlink"
  version="1.1"
  width="297.0022mm" height="210.0072mm" viewBox="0.0000 0.0000 297.0022 210.0072">
<title>SVG Image created as EL2039-B_Silkscreen.svg date 2026/03/18 19:01:42 </title>
  <desc>Image generated by PCBNEW </desc>
<g style="fill:#000000; fill-opacity:1.0000;stroke:#000000; stroke-opacity:1.0000;
stroke-linecap:round; stroke-linejoin:round;"
 transform="translate(0 0) scale(1 1)">
</g>
<g style="fill:none; 
stroke:#000000; stroke-width:0.1000; stroke-opacity:1; 
stroke-linecap:round; stroke-linejoin:round;">
<g transform="rotate(-90.000000 137.8000 79.0000)">
<text x="137.8000" y="79.5000"
transform="scale(-1 1) translate(-275.600000 0)"
textLength="15.4810" font-size="1.3333" lengthAdjust="spacingAndGlyphs"
text-anchor="middle" opacity="0" stroke-opacity="0">For 3458A A2 board</text>
</g>
<g class="stroked-text"><desc>For 3458A A2 board</desc>
<path d="M137.7336 71.8810
L137.7336 71.5476
" />
<path d="M138.2574 71.5476
L137.2574 71.5476
" />
<path d="M137.2574 71.5476
L137.2574 72.0238
" />
<path d="M138.2574 72.5476
L138.2098 72.4524
" />
<path d="M138.2098 72.4524
L138.1622 72.4048
" />
<path d="M138.1622 72.4048
L138.0669 72.3571
" />
<path d="M138.0669 72.3571
L137.7812 72.3571
" />
<path d="M137.7812 72.3571
L137.6860 72.4048
" />
<path d="M137.6860 72.4048
L137.6384 72.4524
" />
<path d="M137.6384 72.4524
L137.5908 72.5476
" />
<path d="M137.5908 72.5476
L137.5908 72.6905
" />
<path d="M137.5908 72.6905
L137.6384 72.7857
" />
<path d="M137.6384 72.7857
L137.6860 72.8333
" />
<path d="M137.6860 72.8333
L137.7812 72.8810
" />
<path d="M137.7812 72.8810
L138.0669 72.8810
" />
<path d="M138.0669 72.8810
L138.1622 72.8333
" />
<path d="M138.1622 72.8333
L138.2098 72.7857
" />
<path d="M138.2098 72.7857
L138.2574 72.6905
" />
<path d="M138.2574 72.6905
L138.2574 72.5476
" />
<path d="M138.2574 73.3095
L137.5908 73.3095
" />
<path d="M137.7812 73.3095
L137.6860 73.3571
" />
<path d="M137.6860 73.3571
L137.6384 73.4048
" />
<path d="M137.6384 73.4048
L137.5908 73.5000
" />
<path d="M137.5908 73.5000
L137.5908 73.5952
" />
<path d="M137.2574 74.5952
L137.2574 75.2143
" />
<path d="M137.2574 75.2143
L137.6384 74.8810
" />
<path d="M137.6384 74.8810
L137.6384 75.0238
" />
<path d="M137.6384 75.0238
L137.6860 75.1190
" />
<path d="M137.6860 75.1190
L137.7336 75.1667
" />
<path d="M137.7336 75.1667
L137.8288 75.2143
" />
<path d="M137.8288 75.2143
L138.0669 75.2143
" />
<path d="M138.0669 75.2143
L138.1622 75.1667
" />
<path d="M138.1622 75.1667
L138.2098 75.1190
" />
<path d="M138.2098 75.1190
L138.2574 75.0238
" />
<path d="M138.2574 75.0238
L138.2574 74.7381
" />
<path d="M138.2574 74.7381
L138.2098 74.6429
" />
<path d="M138.2098 74.6429
L138.1622 74.5952
" />
<path d="M137.5908 76.0714
L138.2574 76.0714
" />
<path d="M137.2098 75.8333
L137.9241 75.5952
" />
<path d="M137.9241 75.5952
L137.9241 76.2143
" />
<path d="M137.2574 77.0714
L137.2574 76.5952
" />
<path d="M137.2574 76.5952
L137.7336 76.5476
" />
<path d="M137.7336 76.5476
L137.6860 76.5952
" />
<path d="M137.6860 76.5952
L137.6384 76.6905
" />
<path d="M137.6384 76.6905
L137.6384 76.9286
" />
<path d="M137.6384 76.9286
L137.6860 77.0238
" />
<path d="M137.6860 77.0238
L137.7336 77.0714
" />
<path d="M137.7336 77.0714
L137.8288 77.1190
" />
<path d="M137.8288 77.1190
L138.0669 77.1190
" />
<path d="M138.0669 77.1190
L138.1622 77.0714
" />
<path d="M138.1622 77.0714
L138.2098 77.0238
" />
<path d="M138.2098 77.0238
L138.2574 76.9286
" />
<path d="M138.2574 76.9286
L138.2574 76.6905
" />
<path d="M138.2574 76.6905
L138.2098 76.5952
" />
<path d="M138.2098 76.5952
L138.1622 76.5476
" />
<path d="M137.6860 77.6905
L137.6384 77.5952
" />
<path d="M137.6384 77.5952
L137.5908 77.5476
" />
<path d="M137.5908 77.5476
L137.4955 77.5000
" />
<path d="M137.4955 77.5000
L137.4479 77.5000
" />
<path d="M137.4479 77.5000
L137.3527 77.5476
" />
<path d="M137.3527 77.5476
L137.3050 77.5952
" />
<path d="M137.3050 77.5952
L137.2574 77.6905
" />
<path d="M137.2574 77.6905
L137.2574 77.8810
" />
<path d="M137.2574 77.8810
L137.3050 77.9762
" />
<path d="M137.3050 77.9762
L137.3527 78.0238
" />
<path d="M137.3527 78.0238
L137.4479 78.0714
" />
<path d="M137.4479 78.0714
L137.4955 78.0714
" />
<path d="M137.4955 78.0714
L137.5908 78.0238
" />
<path d="M137.5908 78.0238
L137.6384 77.9762
" />
<path d="M137.6384 77.9762
L137.6860 77.8810
" />
<path d="M137.6860 77.8810
L137.6860 77.6905
" />
<path d="M137.6860 77.6905
L137.7336 77.5952
" />
<path d="M137.7336 77.5952
L137.7812 77.5476
" />
<path d="M137.7812 77.5476
L137.8765 77.5000
" />
<path d="M137.8765 77.5000
L138.0669 77.5000
" />
<path d="M138.0669 77.5000
L138.1622 77.5476
" />
<path d="M138.1622 77.5476
L138.2098 77.5952
" />
<path d="M138.2098 77.5952
L138.2574 77.6905
" />
<path d="M138.2574 77.6905
L138.2574 77.8810
" />
<path d="M138.2574 77.8810
L138.2098 77.9762
" />
<path d="M138.2098 77.9762
L138.1622 78.0238
" />
<path d="M138.1622 78.0238
L138.0669 78.0714
" />
<path d="M138.0669 78.0714
L137.8765 78.0714
" />
<path d="M137.8765 78.0714
L137.7812 78.0238
" />
<path d="M137.7812 78.0238
L137.7336 77.9762
" />
<path d="M137.7336 77.9762
L137.6860 77.8810
" />
<path d="M137.9717 78.4524
L137.9717 78.9286
" />
<path d="M138.2574 78.3571
L137.2574 78.6905
" />
<path d="M137.2574 78.6905
L138.2574 79.0238
" />
<path d="M137.9717 80.0714
L137.9717 80.5476
" />
<path d="M138.2574 79.9762
L137.2574 80.3095
" />
<path d="M137.2574 80.3095
L138.2574 80.6429
" />
<path d="M137.3527 80.9286
L137.3050 80.9762
" />
<path d="M137.3050 80.9762
L137.2574 81.0714
" />
<path d="M137.2574 81.0714
L137.2574 81.3095
" />
<path d="M137.2574 81.3095
L137.3050 81.4048
" />
<path d="M137.3050 81.4048
L137.3527 81.4524
" />
<path d="M137.3527 81.4524
L137.4479 81.5000
" />
<path d="M137.4479 81.5000
L137.5431 81.5000
" />
<path d="M137.5431 81.5000
L137.6860 81.4524
" />
<path d="M137.6860 81.4524
L138.2574 80.8810
" />
<path d="M138.2574 80.8810
L138.2574 81.5000
" />
<path d="M138.2574 82.6905
L137.2574 82.6905
" />
<path d="M137.6384 82.6905
L137.5908 82.7857
" />
<path d="M137.5908 82.7857
L137.5908 82.9762
" />
<path d="M137.5908 82.9762
L137.6384 83.0714
" />
<path d="M137.6384 83.0714
L137.6860 83.1190
" />
<path d="M137.6860 83.1190
L137.7812 83.1667
" />
<path d="M137.7812 83.1667
L138.0669 83.1667
" />
<path d="M138.0669 83.1667
L138.1622 83.1190
" />
<path d="M138.1622 83.1190
L138.2098 83.0714
" />
<path d="M138.2098 83.0714
L138.2574 82.9762
" />
<path d="M138.2574 82.9762
L138.2574 82.7857
" />
<path d="M138.2574 82.7857
L138.2098 82.6905
" />
<path d="M138.2574 83.7381
L138.2098 83.6429
" />
<path d="M138.2098 83.6429
L138.1622 83.5952
" />
<path d="M138.1622 83.5952
L138.0669 83.5476
" />
<path d="M138.0669 83.5476
L137.7812 83.5476
" />
<path d="M137.7812 83.5476
L137.6860 83.5952
" />
<path d="M137.6860 83.5952
L137.6384 83.6429
" />
<path d="M137.6384 83.6429
L137.5908 83.7381
" />
<path d="M137.5908 83.7381
L137.5908 83.8810
" />
<path d="M137.5908 83.8810
L137.6384 83.9762
" />
<path d="M137.6384 83.9762
L137.6860 84.0238
" />
<path d="M137.6860 84.0238
L137.7812 84.0714
" />
<path d="M137.7812 84.0714
L138.0669 84.0714
" />
<path d="M138.0669 84.0714
L138.1622 84.0238
" />
<path d="M138.1622 84.0238
L138.2098 83.9762
" />
<path d="M138.2098 83.9762
L138.2574 83.8810
" />
<path d="M138.2574 83.8810
L138.2574 83.7381
" />
<path d="M138.2574 84.9286
L137.7336 84.9286
" />
<path d="M137.7336 84.9286
L137.6384 84.8810
" />
<path d="M137.6384 84.8810
L137.5908 84.7857
" />
<path d="M137.5908 84.7857
L137.5908 84.5952
" />
<path d="M137.5908 84.5952
L137.6384 84.5000
" />
<path d="M138.2098 84.9286
L138.2574 84.8333
" />
<path d="M138.2574 84.8333
L138.2574 84.5952
" />
<path d="M138.2574 84.5952
L138.2098 84.5000
" />
<path d="M138.2098 84.5000
L138.1146 84.4524
" />
<path d="M138.1146 84.4524
L138.0193 84.4524
" />
<path d="M138.0193 84.4524
L137.9241 84.5000
" />
<path d="M137.9241 84.5000
L137.8765 84.5952
" />
<path d="M137.8765 84.5952
L137.8765 84.8333
" />
<path d="M137.8765 84.8333
L137.8288 84.9286
" />
<path d="M138.2574 85.4048
L137.5908 85.4048
" />
<path d="M137.7812 85.4048
L137.6860 85.4524
" />
<path d="M137.6860 85.4524
L137.6384 85.5000
" />
<path d="M137.6384 85.5000
L137.5908 85.5952
" />
<path d="M137.5908 85.5952
L137.5908 85.6905
" />
<path d="M138.2574 86.4524
L137.2574 86.4524
" />
<path d="M138.2098 86.4524
L138.2574 86.3571
" />
<path d="M138.2574 86.3571
L138.2574 86.1667
" />
<path d="M138.2574 86.1667
L138.2098 86.0714
" />
<path d="M138.2098 86.0714
L138.1622 86.0238
" />
<path d="M138.1622 86.0238
L138.0669 85.9762
" />
<path d="M138.0669 85.9762
L137.7812 85.9762
" />
<path d="M137.7812 85.9762
L137.6860 86.0238
" />
<path d="M137.6860 86.0238
L137.6384 86.0714
" />
<path d="M137.6384 86.0714
L137.5908 86.1667
" />
<path d="M137.5908 86.1667
L137.5908 86.3571
" />
<path d="M137.5908 86.3571
L137.6384 86.4524
" />
</g><g transform="rotate(-90.000000 126.4000 79.0000)">
<text x="126.4000" y="79.5000"
transform="scale(-1 1) translate(-252.800000 0)"
textLength="6.3381" font-size="1.3333" lengthAdjust="spacingAndGlyphs"
text-anchor="middle" opacity="0" stroke-opacity="0">Rev: 0.1</text>
</g>
<g class="stroked-text"><desc>Rev: 0.1</desc>
<path d="M126.8574 76.6905
L126.3812 76.3571
" />
<path d="M126.8574 76.1190
L125.8574 76.1190
" />
<path d="M125.8574 76.1190
L125.8574 76.5000
" />
<path d="M125.8574 76.5000
L125.9050 76.5952
" />
<path d="M125.9050 76.5952
L125.9527 76.6429
" />
<path d="M125.9527 76.6429
L126.0479 76.6905
" />
<path d="M126.0479 76.6905
L126.1908 76.6905
" />
<path d="M126.1908 76.6905
L126.2860 76.6429
" />
<path d="M126.2860 76.6429
L126.3336 76.5952
" />
<path d="M126.3336 76.5952
L126.3812 76.5000
" />
<path d="M126.3812 76.5000
L126.3812 76.1190
" />
<path d="M126.8098 77.5000
L126.8574 77.4048
" />
<path d="M126.8574 77.4048
L126.8574 77.2143
" />
<path d="M126.8574 77.2143
L126.8098 77.1190
" />
<path d="M126.8098 77.1190
L126.7146 77.0714
" />
<path d="M126.7146 77.0714
L126.3336 77.0714
" />
<path d="M126.3336 77.0714
L126.2384 77.1190
" />
<path d="M126.2384 77.1190
L126.1908 77.2143
" />
<path d="M126.1908 77.2143
L126.1908 77.4048
" />
<path d="M126.1908 77.4048
L126.2384 77.5000
" />
<path d="M126.2384 77.5000
L126.3336 77.5476
" />
<path d="M126.3336 77.5476
L126.4288 77.5476
" />
<path d="M126.4288 77.5476
L126.5241 77.0714
" />
<path d="M126.1908 77.8810
L126.8574 78.1190
" />
<path d="M126.8574 78.1190
L126.1908 78.3571
" />
<path d="M126.7622 78.7381
L126.8098 78.7857
" />
<path d="M126.8098 78.7857
L126.8574 78.7381
" />
<path d="M126.8574 78.7381
L126.8098 78.6905
" />
<path d="M126.8098 78.6905
L126.7622 78.7381
" />
<path d="M126.7622 78.7381
L126.8574 78.7381
" />
<path d="M126.2384 78.7381
L126.2860 78.7857
" />
<path d="M126.2860 78.7857
L126.3336 78.7381
" />
<path d="M126.3336 78.7381
L126.2860 78.6905
" />
<path d="M126.2860 78.6905
L126.2384 78.7381
" />
<path d="M126.2384 78.7381
L126.3336 78.7381
" />
<path d="M125.8574 80.1667
L125.8574 80.2619
" />
<path d="M125.8574 80.2619
L125.9050 80.3571
" />
<path d="M125.9050 80.3571
L125.9527 80.4048
" />
<path d="M125.9527 80.4048
L126.0479 80.4524
" />
<path d="M126.0479 80.4524
L126.2384 80.5000
" />
<path d="M126.2384 80.5000
L126.4765 80.5000
" />
<path d="M126.4765 80.5000
L126.6669 80.4524
" />
<path d="M126.6669 80.4524
L126.7622 80.4048
" />
<path d="M126.7622 80.4048
L126.8098 80.3571
" />
<path d="M126.8098 80.3571
L126.8574 80.2619
" />
<path d="M126.8574 80.2619
L126.8574 80.1667
" />
<path d="M126.8574 80.1667
L126.8098 80.0714
" />
<path d="M126.8098 80.0714
L126.7622 80.0238
" />
<path d="M126.7622 80.0238
L126.6669 79.9762
" />
<path d="M126.6669 79.9762
L126.4765 79.9286
" />
<path d="M126.4765 79.9286
L126.2384 79.9286
" />
<path d="M126.2384 79.9286
L126.0479 79.9762
" />
<path d="M126.0479 79.9762
L125.9527 80.0238
" />
<path d="M125.9527 80.0238
L125.9050 80.0714
" />
<path d="M125.9050 80.0714
L125.8574 80.1667
" />
<path d="M126.7622 80.9286
L126.8098 80.9762
" />
<path d="M126.8098 80.9762
L126.8574 80.9286
" />
<path d="M126.8574 80.9286
L126.8098 80.8810
" />
<path d="M126.8098 80.8810
L126.7622 80.9286
" />
<path d="M126.7622 80.9286
L126.8574 80.9286
" />
<path d="M126.8574 81.9286
L126.8574 81.3571
" />
<path d="M126.8574 81.6429
L125.8574 81.6429
" />
<path d="M125.8574 81.6429
L126.0003 81.5476
" />
<path d="M126.0003 81.5476
L126.0955 81.4524
" />
<path d="M126.0955 81.4524
L126.1431 81.3571
" />
</g></g>
<g style="fill:none; 
stroke:#000000; stroke-width:0.1500; stroke-opacity:1; 
stroke-linecap:round; stroke-linejoin:round;">
<text x="131.9000" y="80.6000"
transform="scale(-1 1) translate(-263.800000 0)"
textLength="2.2024" font-size="1.3333" lengthAdjust="spacingAndGlyphs"
text-anchor="middle" opacity="0" stroke-opacity="0">D1</text>
<g class="stroked-text"><desc>D1</desc>
<path d="M132.6381 80.5548
L132.6381 79.5548
" />
<path d="M132.6381 79.5548
L132.4000 79.5548
" />
<path d="M132.4000 79.5548
L132.2571 79.6024
" />
<path d="M132.2571 79.6024
L132.1619 79.6977
" />
<path d="M132.1619 79.6977
L132.1143 79.7929
" />
<path d="M132.1143 79.7929
L132.0667 79.9834
" />
<path d="M132.0667 79.9834
L132.0667 80.1262
" />
<path d="M132.0667 80.1262
L132.1143 80.3167
" />
<path d="M132.1143 80.3167
L132.1619 80.4120
" />
<path d="M132.1619 80.4120
L132.2571 80.5072
" />
<path d="M132.2571 80.5072
L132.4000 80.5548
" />
<path d="M132.4000 80.5548
L132.6381 80.5548
" />
<path d="M131.1143 80.5548
L131.6857 80.5548
" />
<path d="M131.4000 80.5548
L131.4000 79.5548
" />
<path d="M131.4000 79.5548
L131.4952 79.6977
" />
<path d="M131.4952 79.6977
L131.5905 79.7929
" />
<path d="M131.5905 79.7929
L131.6857 79.8405
" />
</g><g transform="rotate(-90.000000 135.8000 69.8000)">
<text x="135.8000" y="70.3000"
transform="scale(-1 1) translate(-271.600000 0)"
textLength="2.2024" font-size="1.3333" lengthAdjust="spacingAndGlyphs"
text-anchor="middle" opacity="0" stroke-opacity="0">C1</text>
</g>
<g class="stroked-text"><desc>C1</desc>
<path d="M136.1596 69.6333
L136.2072 69.5857
" />
<path d="M136.2072 69.5857
L136.2548 69.4429
" />
<path d="M136.2548 69.4429
L136.2548 69.3476
" />
<path d="M136.2548 69.3476
L136.2072 69.2048
" />
<path d="M136.2072 69.2048
L136.1120 69.1095
" />
<path d="M136.1120 69.1095
L136.0167 69.0619
" />
<path d="M136.0167 69.0619
L135.8262 69.0143
" />
<path d="M135.8262 69.0143
L135.6834 69.0143
" />
<path d="M135.6834 69.0143
L135.4929 69.0619
" />
<path d="M135.4929 69.0619
L135.3977 69.1095
" />
<path d="M135.3977 69.1095
L135.3024 69.2048
" />
<path d="M135.3024 69.2048
L135.2548 69.3476
" />
<path d="M135.2548 69.3476
L135.2548 69.4429
" />
<path d="M135.2548 69.4429
L135.3024 69.5857
" />
<path d="M135.3024 69.5857
L135.3501 69.6333
" />
<path d="M136.2548 70.5857
L136.2548 70.0143
" />
<path d="M136.2548 70.3000
L135.2548 70.3000
" />
<path d="M135.2548 70.3000
L135.3977 70.2048
" />
<path d="M135.3977 70.2048
L135.4929 70.1095
" />
<path d="M135.4929 70.1095
L135.5405 70.0143
" />
</g><g transform="rotate(-90.000000 130.1000 70.3000)">
<text x="130.1000" y="70.8000"
transform="scale(-1 1) translate(-260.200000 0)"
textLength="2.2024" font-size="1.3333" lengthAdjust="spacingAndGlyphs"
text-anchor="middle" opacity="0" stroke-opacity="0">C2</text>
</g>
<g class="stroked-text"><desc>C2</desc>
<path d="M130.4596 70.1333
L130.5072 70.0857
" />
<path d="M130.5072 70.0857
L130.5548 69.9429
" />
<path d="M130.5548 69.9429
L130.5548 69.8476
" />
<path d="M130.5548 69.8476
L130.5072 69.7048
" />
<path d="M130.5072 69.7048
L130.4120 69.6095
" />
<path d="M130.4120 69.6095
L130.3167 69.5619
" />
<path d="M130.3167 69.5619
L130.1262 69.5143
" />
<path d="M130.1262 69.5143
L129.9834 69.5143
" />
<path d="M129.9834 69.5143
L129.7929 69.5619
" />
<path d="M129.7929 69.5619
L129.6977 69.6095
" />
<path d="M129.6977 69.6095
L129.6024 69.7048
" />
<path d="M129.6024 69.7048
L129.5548 69.8476
" />
<path d="M129.5548 69.8476
L129.5548 69.9429
" />
<path d="M129.5548 69.9429
L129.6024 70.0857
" />
<path d="M129.6024 70.0857
L129.6501 70.1333
" />
<path d="M129.6501 70.5143
L129.6024 70.5619
" />
<path d="M129.6024 70.5619
L129.5548 70.6571
" />
<path d="M129.5548 70.6571
L129.5548 70.8952
" />
<path d="M129.5548 70.8952
L129.6024 70.9905
" />
<path d="M129.6024 70.9905
L129.6501 71.0381
" />
<path d="M129.6501 71.0381
L129.7453 71.0857
" />
<path d="M129.7453 71.0857
L129.8405 71.0857
" />
<path d="M129.8405 71.0857
L129.9834 71.0381
" />
<path d="M129.9834 71.0381
L130.5548 70.4667
" />
<path d="M130.5548 70.4667
L130.5548 71.0857
" />
</g></g>
<g style="fill:none; 
stroke:#000000; stroke-width:0.1200; stroke-opacity:1; 
stroke-linecap:round; stroke-linejoin:round;">
<path d="M134.2600 77.3000
L130.2500 77.3000
" />
<path d="M134.2600 77.3000
L134.2600 79.3000
" />
<path d="M134.2600 79.3000
L130.2500 79.3000
" />
<path d="M131.3900 68.9350
L134.8100 68.9350
" />
<path d="M131.3900 75.7000
L131.3900 68.9350
" />
<path d="M134.8100 68.9350
L134.8100 75.7000
" />
<path d="M129.3650 73.3613
L129.3650 72.8387
" />
<path d="M130.8350 73.3613
L130.8350 72.8387
" />
</g> 
</svg>
