<?xml version="1.0" standalone="no"?>
 <!DOCTYPE svg PUBLIC "-//W3C//DTD SVG 1.1//EN" 
 "http://www.w3.org/Graphics/SVG/1.1/DTD/svg11.dtd"> 
<svg
  xmlns:svg="http://www.w3.org/2000/svg"
  xmlns="http://www.w3.org/2000/svg"
  xmlns:xlink="http://www.w3.org/1999/xlink"
  version="1.1"
  width="297.0022mm" height="210.0072mm" viewBox="0.0000 0.0000 297.0022 210.0072">
<title>SVG Image created as EL2039-In2_Cu.svg date 2026/03/18 19:01:42 </title>
  <desc>Image generated by PCBNEW </desc>
<g style="fill:#000000; fill-opacity:1.0000;stroke:#000000; stroke-opacity:1.0000;
stroke-linecap:round; stroke-linejoin:round;"
 transform="translate(0 0) scale(1 1)">
<path style="fill:#000000; fill-opacity:1.0000; stroke:none;fill-rule:evenodd;"
d="M 127.4650,71.2700
127.4840,71.1743
127.5382,71.0932
127.6193,71.0390
127.7150,71.0200
128.8150,71.0200
128.9107,71.0390
128.9918,71.0932
129.0460,71.1743
129.0650,71.2700
129.0650,72.3700
129.0460,72.4657
128.9918,72.5468
128.9107,72.6010
128.8150,72.6200
127.7150,72.6200
127.6193,72.6010
127.5382,72.5468
127.4840,72.4657
127.4650,72.3700
Z" /> 
</g>
<g style="fill:#000000; fill-opacity:1.0000; stroke:none;">
<circle cx="128.2650" cy="74.3600" r="0.8000" /> 
</g>
<g style="fill:#000000; fill-opacity:1.0000; stroke:none;">
<circle cx="128.2650" cy="76.9000" r="0.8000" /> 
</g>
<g style="fill:#000000; fill-opacity:1.0000; stroke:none;">
<circle cx="128.2650" cy="79.4400" r="0.8000" /> 
</g>
<g style="fill:#000000; fill-opacity:1.0000; stroke:none;">
<circle cx="128.2650" cy="81.9800" r="0.8000" /> 
</g>
<g style="fill:#000000; fill-opacity:1.0000; stroke:none;">
<circle cx="128.2650" cy="84.5200" r="0.8000" /> 
</g>
<g style="fill:#000000; fill-opacity:1.0000; stroke:none;">
<circle cx="128.2650" cy="87.0600" r="0.8000" /> 
</g>
<g style="fill:#000000; fill-opacity:1.0000; stroke:none;">
<circle cx="135.8850" cy="87.0600" r="0.8000" /> 
</g>
<g style="fill:#000000; fill-opacity:1.0000; stroke:none;">
<circle cx="135.8850" cy="84.5200" r="0.8000" /> 
</g>
<g style="fill:#000000; fill-opacity:1.0000; stroke:none;">
<circle cx="135.8850" cy="81.9800" r="0.8000" /> 
</g>
<g style="fill:#000000; fill-opacity:1.0000; stroke:none;">
<circle cx="135.8850" cy="79.4400" r="0.8000" /> 
</g>
<g style="fill:#000000; fill-opacity:1.0000; stroke:none;">
<circle cx="135.8850" cy="76.9000" r="0.8000" /> 
</g>
<g style="fill:#000000; fill-opacity:1.0000; stroke:none;">
<circle cx="135.8850" cy="74.3600" r="0.8000" /> 
</g>
<g style="fill:#000000; fill-opacity:1.0000; stroke:none;">
<circle cx="135.8850" cy="71.8200" r="0.8000" /> 
</g>
<g style="fill:#000000; fill-opacity:1.0000; stroke:none;">
<circle cx="129.9000" cy="76.0000" r="0.3000" /> 
</g>
<g style="fill:#000000; fill-opacity:1.0000; stroke:none;">
<circle cx="129.9000" cy="75.2000" r="0.3000" /> 
</g>
<g style="fill:#000000; fill-opacity:1.0000; stroke:none;">
<circle cx="131.5000" cy="76.4000" r="0.3000" /> 
</g>
<g style="fill:#000000; fill-opacity:1.0000; stroke:none;">
<circle cx="134.3707" cy="85.9600" r="0.4000" /> 
</g>
<g style="fill:#000000; fill-opacity:1.0000; stroke:none;">
<circle cx="137.5000" cy="80.1261" r="0.4000" /> 
</g>
<g style="fill:#000000; fill-opacity:1.0000; stroke:none;">
<circle cx="129.2400" cy="85.9600" r="0.4000" /> 
</g>
<g style="fill:#000000; fill-opacity:1.0000; stroke:none;">
<circle cx="129.8304" cy="69.9000" r="0.4000" /> 
</g>
<g style="fill:#000000; fill-opacity:1.0000; stroke:none;">
<circle cx="132.2000" cy="84.0000" r="0.4000" /> 
</g>
<g style="fill:#000000; fill-opacity:1.0000; stroke:none;">
<circle cx="127.9783" cy="88.5000" r="0.4000" /> 
</g>
<g style="fill:#000000; fill-opacity:1.0000; stroke:none;">
<circle cx="126.7000" cy="71.8826" r="0.4000" /> 
</g>
<g style="fill:#000000; fill-opacity:1.0000; stroke:none;">
<circle cx="137.5000" cy="72.4565" r="0.4000" /> 
</g>
<g style="fill:#000000; fill-opacity:1.0000; stroke:none;">
<circle cx="126.7000" cy="84.6652" r="0.4000" /> 
</g>
<g style="fill:#000000; fill-opacity:1.0000; stroke:none;">
<circle cx="129.2400" cy="83.3947" r="0.4000" /> 
</g>
<g style="fill:#000000; fill-opacity:1.0000; stroke:none;">
<circle cx="131.1000" cy="70.9000" r="0.4000" /> 
</g>
<g style="fill:#000000; fill-opacity:1.0000; stroke:none;">
<circle cx="137.5000" cy="85.2391" r="0.4000" /> 
</g>
<g style="fill:#000000; fill-opacity:1.0000; stroke:none;">
<circle cx="127.2739" cy="69.9000" r="0.4000" /> 
</g>
<g style="fill:#000000; fill-opacity:1.0000; stroke:none;">
<circle cx="126.7000" cy="82.1087" r="0.4000" /> 
</g>
<g style="fill:#000000; fill-opacity:1.0000; stroke:none;">
<circle cx="137.5000" cy="82.6826" r="0.4000" /> 
</g>
<g style="fill:#000000; fill-opacity:1.0000; stroke:none;">
<circle cx="137.5000" cy="75.0130" r="0.4000" /> 
</g>
<g style="fill:#000000; fill-opacity:1.0000; stroke:none;">
<circle cx="129.2400" cy="80.8293" r="0.4000" /> 
</g>
<g style="fill:#000000; fill-opacity:1.0000; stroke:none;">
<circle cx="132.2000" cy="82.2000" r="0.4000" /> 
</g>
<g style="fill:#000000; fill-opacity:1.0000; stroke:none;">
<circle cx="130.5348" cy="88.5000" r="0.4000" /> 
</g>
<g style="fill:#000000; fill-opacity:1.0000; stroke:none;">
<circle cx="137.5000" cy="87.7956" r="0.4000" /> 
</g>
<g style="fill:#000000; fill-opacity:1.0000; stroke:none;">
<circle cx="137.5000" cy="77.5696" r="0.4000" /> 
</g>
<g style="fill:#000000; fill-opacity:1.0000; stroke:none;">
<circle cx="126.7000" cy="74.4391" r="0.4000" /> 
</g>
<g style="fill:#000000; fill-opacity:1.0000; stroke:none;">
<circle cx="137.5000" cy="69.9000" r="0.4000" /> 
</g>
<g style="fill:#000000; fill-opacity:1.0000; stroke:none;">
<circle cx="132.5000" cy="77.2000" r="0.3000" /> 
</g>
<g style="fill:#000000; fill-opacity:1.0000; stroke:none;">
<circle cx="131.5000" cy="77.2000" r="0.3000" /> 
</g>
<g style="fill:#000000; fill-opacity:1.0000; stroke:none;">
<circle cx="134.9435" cy="69.9000" r="0.4000" /> 
</g>
<g style="fill:#000000; fill-opacity:1.0000; stroke:none;">
<circle cx="126.7000" cy="87.2217" r="0.4000" /> 
</g>
<g style="fill:#000000; fill-opacity:1.0000; stroke:none;">
<circle cx="126.7000" cy="76.9957" r="0.4000" /> 
</g>
<g style="fill:#000000; fill-opacity:1.0000; stroke:none;">
<circle cx="132.7000" cy="85.6000" r="0.4000" /> 
</g>
<g style="fill:#000000; fill-opacity:1.0000; stroke:none;">
<circle cx="126.7000" cy="79.5522" r="0.4000" /> 
</g>
<g style="fill:#000000; fill-opacity:1.0000; stroke:none;">
<circle cx="135.6478" cy="88.5000" r="0.4000" /> 
</g>
<g style="fill:#000000; fill-opacity:1.0000; stroke:none;">
<circle cx="133.7000" cy="72.7000" r="0.4000" /> 
</g>
<g style="fill:#000000; fill-opacity:1.0000; stroke:none;">
<circle cx="133.0913" cy="88.5000" r="0.4000" /> 
</g>
<g style="fill:none; 
stroke:#000000; stroke-width:0.5000; stroke-opacity:1; 
stroke-linecap:round; stroke-linejoin:round;">
<path d="M130.3900 74.1900
L130.3900 79.0700
" />
<path d="M130.3900 73.1400
L130.3900 74.1900
" />
<path d="M130.3900 79.0700
L130.3800 79.0800
" />
<path style="fill:#000000; fill-opacity:1.0000; stroke:none;fill-rule:evenodd;"
d="M 138.2675,69.1102
138.3133,69.1630
138.3245,69.2145
138.3245,89.1655
138.3048,89.2325
138.2520,89.2783
138.2005,89.2895
125.9895,89.2895
125.9225,89.2698
125.8767,89.2170
125.8655,89.1655
125.8655,86.9565
134.8345,86.9565
134.8345,87.1635
134.8749,87.3664
134.8749,87.3664
134.9541,87.5576
135.0690,87.7297
135.2153,87.8760
135.2153,87.8760
135.3874,87.9909
135.5786,88.0701
135.7815,88.1105
135.7815,88.1105
135.7815,88.1105
135.9885,88.1105
135.9885,88.1105
136.1914,88.0701
136.3826,87.9909
136.5547,87.8760
136.7010,87.7297
136.8159,87.5576
136.8951,87.3664
136.9355,87.1635
136.9355,86.9565
136.8951,86.7536
136.8159,86.5624
136.7010,86.3903
136.7010,86.3903
136.5547,86.2440
136.4686,86.1865
136.3826,86.1291
136.1914,86.0499
136.1914,86.0499
135.9885,86.0095
135.9885,86.0095
135.7815,86.0095
135.7815,86.0095
135.5786,86.0499
135.5786,86.0499
135.3874,86.1291
135.2153,86.2440
135.0690,86.3903
134.9541,86.5624
134.8749,86.7536
134.8749,86.7536
134.8345,86.9565
125.8655,86.9565
125.8655,81.8765
134.8345,81.8765
134.8345,82.0835
134.8749,82.2864
134.8749,82.2864
134.9541,82.4776
135.0690,82.6497
135.2153,82.7960
135.2153,82.7960
135.3874,82.9109
135.5786,82.9901
135.7815,83.0305
135.7815,83.0305
135.7815,83.0305
135.9885,83.0305
135.9885,83.0305
136.1914,82.9901
136.3826,82.9109
136.5547,82.7960
136.7010,82.6497
136.8159,82.4776
136.8951,82.2864
136.9355,82.0835
136.9355,81.8765
136.8951,81.6736
136.8159,81.4824
136.7010,81.3103
136.7010,81.3103
136.5547,81.1640
136.4686,81.1065
136.3826,81.0491
136.1914,80.9699
136.1914,80.9699
135.9885,80.9295
135.9885,80.9295
135.7815,80.9295
135.7815,80.9295
135.5786,80.9699
135.5786,80.9699
135.3874,81.0491
135.2153,81.1640
135.0690,81.3103
134.9541,81.4824
134.8749,81.6736
134.8749,81.6736
134.8345,81.8765
125.8655,81.8765
125.8655,76.7965
127.2145,76.7965
127.2145,77.0035
127.2549,77.2064
127.2549,77.2064
127.3341,77.3976
127.4490,77.5697
127.5953,77.7160
127.5953,77.7160
127.7674,77.8309
127.9586,77.9101
128.1615,77.9505
128.1615,77.9505
128.1615,77.9505
128.3685,77.9505
128.3685,77.9505
128.5714,77.9101
128.7626,77.8309
128.9347,77.7160
129.0810,77.5697
129.1959,77.3976
129.2751,77.2064
129.3155,77.0035
129.3155,76.7965
129.2751,76.5936
129.1959,76.4024
129.0810,76.2303
129.0810,76.2303
128.9347,76.0840
128.8486,76.0265
128.7626,75.9691
128.6623,75.9275
128.5714,75.8899
128.5714,75.8899
128.3685,75.8495
128.3685,75.8495
128.1615,75.8495
128.1615,75.8495
127.9586,75.8899
127.9586,75.8899
127.7674,75.9691
127.5953,76.0840
127.4490,76.2303
127.3341,76.4024
127.2549,76.5936
127.2549,76.5936
127.2145,76.7965
125.8655,76.7965
125.8655,75.1275
129.3495,75.1275
129.3495,75.2725
129.3870,75.4125
129.3870,75.4125
129.4595,75.5380
129.4760,75.6059
129.4595,75.6620
129.3870,75.7875
129.3870,75.7875
129.3495,75.9275
129.3495,76.0725
129.3526,76.0840
129.3870,76.2125
129.4595,76.3380
129.4595,76.3380
129.4595,76.3380
129.5620,76.4405
129.5620,76.4405
129.5620,76.4405
129.6875,76.5130
129.6875,76.5130
129.6875,76.5130
129.7976,76.5425
129.8573,76.5788
129.8878,76.6417
129.8895,76.6623
129.8895,78.9605
129.8853,78.9926
129.8795,79.0141
129.8795,79.1459
129.9136,79.2732
129.9466,79.3302
129.9795,79.3873
130.0727,79.4805
130.1868,79.5464
130.3141,79.5805
130.3141,79.5805
130.4459,79.5805
130.4459,79.5805
130.5732,79.5464
130.6873,79.4805
130.7905,79.3773
130.8564,79.2632
130.8905,79.1359
130.8905,79.0041
130.8905,74.1241
130.8905,73.0741
130.8564,72.9468
130.7905,72.8327
130.6973,72.7395
130.6402,72.7066
130.5832,72.6736
130.5195,72.6566
130.4559,72.6395
130.3241,72.6395
130.1968,72.6736
130.0827,72.7395
130.0827,72.7395
129.9895,72.8327
129.9895,72.8327
129.9236,72.9468
129.8895,73.0741
129.8895,74.5377
129.8698,74.6048
129.8170,74.6505
129.7976,74.6575
129.7584,74.6680
129.6875,74.6870
129.5620,74.7595
129.5620,74.7595
129.4595,74.8620
129.4595,74.8620
129.3870,74.9875
129.3870,74.9875
129.3495,75.1275
125.8655,75.1275
125.8655,71.2221
127.2145,71.2221
127.2145,72.4179
127.2145,72.4179
127.2209,72.4775
127.2712,72.6123
127.2712,72.6123
127.3575,72.7275
127.3575,72.7275
127.4727,72.8138
127.4727,72.8138
127.6075,72.8641
127.6075,72.8641
127.6144,72.8648
127.6671,72.8705
128.8629,72.8705
128.9225,72.8641
129.0573,72.8138
129.1725,72.7275
129.2588,72.6123
129.3091,72.4775
129.3155,72.4179
129.3155,71.7165
134.8345,71.7165
134.8345,71.9235
134.8749,72.1264
134.8749,72.1264
134.9541,72.3176
135.0690,72.4897
135.2153,72.6360
135.2153,72.6360
135.3874,72.7509
135.5786,72.8301
135.7493,72.8641
135.7815,72.8705
135.7815,72.8705
135.7815,72.8705
135.9885,72.8705
135.9885,72.8705
136.1914,72.8301
136.3826,72.7509
136.5547,72.6360
136.7010,72.4897
136.8159,72.3176
136.8951,72.1264
136.9355,71.9235
136.9355,71.7165
136.8951,71.5136
136.8159,71.3224
136.7010,71.1503
136.7010,71.1503
136.5547,71.0040
136.4176,70.9125
136.3826,70.8891
136.1914,70.8099
136.1914,70.8099
135.9885,70.7695
135.9885,70.7695
135.7815,70.7695
135.7815,70.7695
135.5786,70.8099
135.5786,70.8099
135.3874,70.8891
135.2153,71.0040
135.0690,71.1503
134.9541,71.3224
134.8749,71.5136
134.8749,71.5136
134.8345,71.7165
129.3155,71.7165
129.3155,71.2221
129.3091,71.1625
129.3046,71.1503
129.2588,71.0277
129.2588,71.0277
129.1725,70.9125
129.1725,70.9125
129.0573,70.8262
129.0573,70.8262
128.9225,70.7759
128.9225,70.7759
128.8629,70.7695
128.8629,70.7695
128.8629,70.7695
128.8629,70.7695
127.6671,70.7695
127.6671,70.7695
127.6075,70.7759
127.4727,70.8262
127.4727,70.8262
127.3575,70.9125
127.3575,70.9125
127.2712,71.0277
127.2712,71.0277
127.2209,71.1625
127.2145,71.2221
127.2145,71.2221
127.2145,71.2221
125.8655,71.2221
125.8655,69.2145
125.8852,69.1475
125.9380,69.1017
125.9895,69.0905
138.2005,69.0905
Z" /> 
</g> 
</svg>
